<?xml version="1.0" standalone="no"?>
<!DOCTYPE svg PUBLIC "-//W3C//DTD SVG 20010904//EN"
 "http://www.w3.org/TR/2001/REC-SVG-20010904/DTD/svg10.dtd">
<svg version="1.0" xmlns="http://www.w3.org/2000/svg"
 width="300.000000pt" height="300.000000pt" viewBox="0 0 300.000000 300.000000"
 preserveAspectRatio="xMidYMid meet">
<metadata>
Created by potrace 1.10, written by Peter Selinger 2001-2011
</metadata>
<g transform="translate(0.000000,300.000000) scale(0.100000,-0.100000)"
fill="#000000" stroke="none">
<path d="M1452 2535 c-37 -31 -41 -61 -13 -97 11 -14 18 -33 15 -44 -3 -10 2
-28 11 -39 16 -20 16 -20 6 2 -17 35 -12 50 7 22 9 -14 23 -24 30 -22 18 7 15
-32 -5 -48 -9 -8 -30 -18 -47 -24 l-31 -10 -5 -90 c-8 -141 -44 -184 -168
-204 -34 -5 -66 -12 -71 -16 -6 -3 -19 -31 -31 -63 -30 -79 -40 -241 -17 -276
l16 -24 -68 1 c-63 2 -72 -1 -116 -32 -35 -25 -61 -35 -107 -41 -76 -8 -111
-41 -106 -99 3 -32 6 -36 33 -38 17 0 35 -2 42 -2 7 -1 17 -20 23 -42 23 -83
90 -115 230 -106 139 8 237 55 347 167 81 83 132 172 192 335 10 27 26 -178
26 -335 0 -137 -9 -165 -76 -247 -17 -21 -9 -15 18 13 74 77 88 130 80 303 -4
75 -10 174 -13 221 l-6 85 41 -82 c58 -114 124 -184 219 -230 l76 -38 128 2
c117 2 128 0 128 -16 0 -20 -30 -51 -50 -51 -10 0 -10 4 1 18 13 15 12 16 -3
3 -21 -15 -15 -31 11 -31 32 0 67 55 50 81 -6 11 -36 14 -131 14 -118 0 -126
1 -188 32 -70 34 -144 92 -161 126 -10 19 -8 19 17 -4 62 -58 93 -69 186 -69
85 0 112 -10 89 -33 -10 -10 -86 -11 -126 -2 -11 3 -6 -2 10 -10 37 -17 117
-19 133 -3 19 19 14 46 -12 63 -19 13 -39 15 -93 10 -60 -5 -73 -3 -111 17
-107 59 -184 170 -211 305 -10 49 -23 98 -29 108 -8 15 -7 24 4 36 15 16 48
214 42 247 -2 8 -19 21 -38 27 -27 9 -36 18 -38 38 -4 36 -32 36 -32 0 0 -35
8 -45 43 -60 34 -16 34 -37 -1 -88 -30 -43 -50 -47 -117 -28 -25 7 -30 14 -32
41 -1 28 4 36 37 57 22 14 44 25 50 25 11 0 13 52 4 88 -4 12 -14 22 -23 22
-9 1 8 10 38 20 30 11 57 18 59 15 12 -12 -11 -35 -35 -36 -24 0 -25 -1 -8 -8
11 -5 28 -4 38 1 20 10 21 5 5 -22 -10 -16 -10 -22 1 -32 8 -8 11 -8 8 -2 -4
7 0 24 8 40 7 15 13 30 12 33 -31 72 -91 138 -133 147 -24 4 -37 0 -62 -21z
m117 -27 c26 -28 28 -34 14 -41 -8 -5 -36 -7 -61 -4 -35 4 -41 2 -28 -5 11 -6
41 -8 69 -5 62 8 51 -6 -22 -27 l-55 -16 -28 27 c-15 15 -28 36 -27 47 0 16 4
14 15 -11 19 -44 23 -41 17 7 -5 38 -4 40 21 40 14 0 34 -9 43 -20 10 -11 22
-20 27 -20 19 0 -29 41 -58 49 l-31 9 37 1 c29 1 43 -6 67 -31z m60 -335 c-13
-26 -22 -56 -21 -66 2 -10 -2 -24 -8 -32 -8 -10 -7 -27 5 -70 17 -56 17 -56
-10 -110 -54 -111 -254 -255 -387 -280 -32 -6 -38 -4 -54 20 -14 22 -16 41
-11 123 8 131 25 186 57 190 14 2 52 9 86 17 33 8 82 15 109 15 61 0 85 20 84
69 l-1 36 -8 -35 c-9 -38 -33 -60 -64 -60 -21 1 -21 1 -1 15 40 29 44 36 56
96 l12 60 37 -36 37 -36 27 32 c15 17 36 50 47 71 29 57 36 39 8 -19z m-25
-426 c-45 -138 -141 -284 -240 -367 -107 -89 -252 -133 -366 -112 -76 14 -109
37 -121 83 -13 49 -36 71 -70 66 -34 -5 -44 12 -26 45 19 36 40 47 89 48 29 0
57 8 79 23 67 44 77 47 146 47 149 0 280 59 411 183 45 43 89 91 96 108 l13
30 3 -51 c2 -30 -4 -74 -14 -103z"/>
<path d="M1220 1936 c0 -13 110 -71 157 -82 79 -18 144 -2 180 45 24 31 12 32
-22 2 -55 -48 -132 -42 -277 23 -21 9 -38 14 -38 12z"/>
<path d="M1209 1900 c16 -27 21 -51 21 -102 0 -72 19 -108 58 -108 29 0 154
65 202 105 63 52 62 62 -2 19 -68 -47 -167 -94 -195 -94 -28 0 -43 27 -43 80
0 47 -19 99 -45 120 -14 12 -14 8 4 -20z"/>
<path d="M1740 1512 c31 -46 114 -110 180 -140 64 -28 167 -52 228 -52 58 0
51 -16 -22 -45 -39 -16 -77 -42 -112 -77 -58 -58 -75 -65 -145 -67 -31 -1 -66
-11 -104 -31 -70 -37 -87 -39 -147 -16 -47 18 -48 18 -97 -3 -50 -21 -101 -28
-101 -13 0 15 -70 42 -109 42 -40 0 -63 18 -75 56 -21 68 -98 77 -180 20 -69
-47 -109 -49 -136 -3 -18 28 -20 29 -20 10 0 -13 10 -33 21 -44 29 -29 89 -22
153 20 28 17 62 31 77 31 26 0 59 -22 59 -40 0 -5 12 -22 26 -39 23 -27 32
-31 77 -31 75 0 91 -16 23 -24 -63 -7 -97 3 -120 36 -9 12 -16 17 -16 11 0 -6
8 -21 19 -34 16 -20 30 -23 140 -30 109 -7 126 -6 166 12 45 20 45 20 91 -1
61 -26 74 -25 142 9 36 18 81 32 122 36 80 9 102 20 165 84 27 28 65 56 85 62
53 17 80 37 80 59 0 27 -36 40 -110 40 -113 0 -234 54 -334 148 -43 41 -46 43
-26 14z"/>
<path d="M306 866 c-20 -18 -36 -40 -36 -47 0 -19 38 -79 50 -79 5 0 25 14 45
31 51 45 47 90 -12 123 -6 3 -27 -9 -47 -28z m42 -18 c17 -17 15 -68 -3 -68
-17 0 -35 30 -35 59 0 23 19 28 38 9z"/>
<path d="M440 880 c-14 -11 -19 -20 -12 -20 8 0 12 -16 12 -47 0 -60 12 -82
34 -64 11 9 13 19 5 37 -22 60 -3 59 34 -1 16 -25 32 -45 36 -45 13 0 46 29
34 30 -9 0 -13 19 -13 59 0 67 -9 80 -35 51 -10 -12 -13 -20 -7 -20 7 0 12
-12 11 -27 l0 -28 -17 25 c-9 13 -26 35 -37 47 l-20 23 -25 -20z"/>
<path d="M623 880 c-20 -15 -20 -19 -7 -24 13 -5 16 -17 12 -61 l-5 -55 37 0
c24 0 43 7 55 20 17 19 17 19 -19 13 -32 -5 -36 -3 -36 16 0 17 4 21 19 16 10
-3 24 1 31 10 11 13 8 15 -19 15 -24 0 -31 4 -31 20 0 13 5 17 14 14 16 -6 56
12 56 25 0 9 -51 8 -67 -2 -6 -4 -13 -3 -15 2 -1 5 -13 1 -25 -9z"/>
<path d="M860 879 l-25 -20 28 7 27 6 0 -60 c0 -65 12 -84 38 -58 11 10 12 16
4 16 -7 0 -12 16 -12 43 0 37 3 44 30 55 42 19 37 27 -18 29 -34 1 -55 -4 -72
-18z"/>
<path d="M994 881 c-21 -17 -21 -18 -4 -29 10 -6 21 -26 25 -44 4 -18 12 -42
18 -53 9 -18 11 -17 37 14 l28 33 7 -31 c4 -17 12 -31 19 -31 38 0 94 126 68
152 -9 9 -18 8 -39 -2 -28 -14 -28 -14 -5 -18 20 -3 22 -7 17 -35 -11 -52 -22
-52 -40 2 -9 28 -20 53 -23 55 -4 2 -18 -4 -31 -15 -13 -10 -18 -19 -12 -19
15 0 32 -36 25 -54 -10 -27 -19 -18 -38 34 -10 28 -21 52 -25 54 -3 2 -16 -4
-27 -13z"/>
<path d="M1251 866 c-28 -28 -32 -39 -26 -64 9 -43 38 -67 63 -53 29 15 62 60
62 83 0 19 -41 68 -58 68 -4 0 -23 -15 -41 -34z m47 -18 c17 -17 15 -68 -3
-68 -17 0 -35 30 -35 59 0 23 19 28 38 9z"/>
<path d="M1494 866 c-39 -39 -42 -63 -13 -99 16 -21 27 -26 57 -24 46 3 63 13
55 32 -3 9 0 21 6 29 9 11 6 13 -19 11 -30 -2 -68 -25 -42 -25 7 0 12 -4 12
-10 0 -18 -29 -11 -40 9 -23 45 -1 104 25 68 14 -19 24 -21 44 -8 12 8 11 13
-10 30 -32 27 -36 26 -75 -13z"/>
<path d="M1643 880 c-18 -14 -20 -19 -8 -24 11 -4 15 -21 15 -61 0 -30 4 -55
8 -55 14 0 48 29 35 30 -9 0 -13 19 -13 59 0 33 -3 62 -8 64 -4 3 -17 -3 -29
-13z"/>
<path d="M1786 882 c-14 -14 -18 -15 -25 -3 -7 11 -13 11 -32 0 -15 -7 -19
-14 -11 -17 7 -2 12 -22 12 -50 0 -60 12 -81 34 -63 12 10 13 17 5 27 -16 20
-7 78 14 82 20 4 23 -19 5 -47 -9 -15 -8 -24 5 -45 20 -29 39 -33 57 -11 10
12 10 15 -3 15 -26 0 -41 37 -22 56 20 21 19 51 -3 63 -14 7 -23 6 -36 -7z"/>
<path d="M1885 880 c-12 -13 -14 -20 -6 -20 9 0 12 -17 9 -60 -3 -60 -3 -60
25 -60 30 0 67 16 67 28 0 4 -12 8 -27 7 -27 0 -28 1 -25 51 4 62 -14 86 -43
54z"/>
<path d="M2037 875 c-34 -32 -34 -41 1 -59 16 -8 34 -22 41 -30 11 -14 11 -16
-6 -16 -10 0 -24 5 -31 12 -16 16 -37 -4 -29 -26 14 -36 107 -6 107 34 0 10
-15 28 -35 40 -19 12 -35 26 -35 31 0 13 14 11 28 -3 10 -9 16 -8 30 5 15 16
15 19 2 27 -24 16 -44 12 -73 -15z"/>
<path d="M2266 875 c-34 -31 -33 -39 9 -65 19 -12 35 -29 35 -37 0 -13 -3 -13
-26 2 -24 16 -28 16 -43 1 -14 -15 -14 -18 -1 -26 25 -16 65 -11 88 10 29 28
28 33 -15 68 -21 17 -35 34 -31 38 4 4 15 1 23 -6 13 -11 19 -10 33 4 15 15
15 18 2 26 -24 16 -45 11 -74 -15z"/>
<path d="M2385 880 c-10 -12 -13 -20 -7 -20 8 0 12 -20 12 -54 0 -60 13 -77
38 -52 11 10 12 16 4 16 -7 0 -12 7 -12 15 0 9 9 15 25 15 21 0 25 -5 25 -30
0 -16 4 -30 8 -30 14 0 48 29 35 30 -9 0 -13 17 -13 53 0 68 -8 81 -37 57 -18
-14 -20 -19 -8 -24 25 -9 18 -36 -10 -36 -22 0 -25 4 -25 34 0 43 -12 52 -35
26z"/>
<path d="M2572 872 c-36 -31 -43 -72 -16 -110 20 -29 33 -28 72 9 38 35 42 74
12 107 -26 28 -28 27 -68 -6z m42 -28 c11 -28 6 -64 -7 -64 -14 0 -37 40 -37
65 0 20 36 19 44 -1z"/>
<path d="M2757 883 c-14 -15 -19 -15 -26 -4 -7 11 -13 11 -32 0 -15 -7 -19
-14 -11 -17 7 -2 12 -22 12 -50 0 -59 12 -81 34 -63 8 7 13 18 10 24 -2 7 9
20 26 29 33 19 49 61 30 83 -16 19 -22 19 -43 -2z m21 -46 c2 -12 -3 -17 -17
-17 -15 0 -21 6 -21 21 0 25 33 22 38 -4z"/>
<path d="M758 803 c-8 -10 -3 -13 23 -13 30 0 76 17 57 21 -33 6 -71 2 -80 -8z"/>
<path d="M1057 534 c-13 -14 -7 -33 13 -39 11 -4 18 -11 14 -16 -3 -6 -12 -5
-22 3 -13 11 -14 11 -10 -2 2 -8 14 -16 26 -18 27 -4 30 24 5 45 -17 14 -17
14 0 9 12 -4 17 -2 15 6 -5 15 -31 22 -41 12z"/>
<path d="M1157 533 c-11 -10 -8 -73 3 -73 6 0 10 18 10 40 0 41 -2 45 -13 33z"/>
<path d="M1227 534 c-11 -11 -8 -74 3 -74 6 0 10 10 11 23 l0 22 11 -22 c17
-35 28 -27 28 18 0 23 -4 38 -10 34 -5 -3 -7 -13 -4 -23 4 -12 0 -10 -13 6
-10 13 -22 20 -26 16z"/>
<path d="M1342 531 c-8 -5 -12 -21 -10 -37 2 -23 8 -29 27 -29 13 0 26 6 29
14 3 9 -1 11 -17 6 -17 -5 -21 -2 -21 15 0 18 4 20 22 14 20 -6 21 -5 9 10
-15 18 -20 19 -39 7z"/>
<path d="M1440 500 c0 -36 3 -40 25 -40 31 0 33 20 3 21 -17 1 -19 2 -5 6 9 2
17 8 17 13 0 5 -8 11 -17 13 -14 4 -12 5 5 6 30 1 28 21 -3 21 -22 0 -25 -4
-25 -40z"/>
<path d="M1607 533 c-13 -12 -7 -25 8 -19 8 3 15 2 15 -3 0 -5 -7 -14 -15 -21
-22 -18 -18 -30 10 -30 14 0 25 5 25 10 0 6 -5 10 -11 10 -8 0 -8 5 1 15 22
26 -10 62 -33 38z"/>
<path d="M1704 526 c-11 -28 0 -61 21 -61 16 0 20 7 20 35 0 25 -5 36 -18 38
-9 2 -20 -3 -23 -12z"/>
<path d="M1807 533 c-13 -12 -7 -25 8 -19 8 3 15 2 15 -3 0 -5 -7 -14 -15 -21
-24 -20 -18 -30 18 -30 28 1 30 2 15 14 -13 9 -14 16 -6 24 6 6 8 18 5 26 -7
16 -28 21 -40 9z"/>
<path d="M1900 514 c0 -19 4 -25 15 -20 8 3 15 1 15 -4 0 -6 -7 -10 -16 -10
-8 0 -12 -4 -9 -10 10 -16 35 -12 42 6 4 11 -1 22 -12 30 -17 13 -17 14 -2 14
9 0 17 5 17 10 0 6 -11 10 -25 10 -20 0 -25 -5 -25 -26z"/>
</g>
</svg>
