<svg version="1.1" id="Layer_1" xmlns="http://www.w3.org/2000/svg" xmlns:xlink="http://www.w3.org/1999/xlink" x="0px" y="0px"
	 width="100%" viewBox="0 0 500 500" enable-background="new 0 0 500 500" xml:space="preserve">
<path fill="#FFF1E8" opacity="1.000000" stroke="none" 
	d="
M318.000000,501.000000 
	C212.000031,501.000000 106.500053,501.000000 1.000057,501.000000 
	C1.000038,334.333405 1.000038,167.666794 1.000019,1.000146 
	C167.666565,1.000097 334.333130,1.000097 500.999756,1.000049 
	C500.999847,167.666519 500.999847,334.333038 500.999939,500.999786 
	C440.166656,501.000000 379.333344,501.000000 318.000000,501.000000 
M255.702515,195.953491 
	C255.868179,195.616394 256.033844,195.279297 256.831573,194.889816 
	C257.869385,194.084152 258.907166,193.278488 259.944977,192.472824 
	C259.576721,192.084778 259.208466,191.696732 258.840210,191.308685 
	C257.915710,192.472015 256.991211,193.635345 255.499863,194.873199 
	C255.218536,195.117905 254.937225,195.362610 254.219467,195.764908 
	C253.937607,195.902908 253.692383,196.089142 252.850449,196.614197 
	C252.275726,196.941116 251.710129,197.285431 251.124893,197.592346 
	C240.613220,203.105316 230.245880,208.924362 219.522751,213.990158 
	C214.280594,216.466629 210.887207,214.069611 210.030426,208.352570 
	C209.467331,204.595306 209.800995,200.657761 208.893906,197.009613 
	C207.773224,192.502533 205.782425,188.211838 203.957870,183.262543 
	C203.612152,183.086304 203.266418,182.910065 202.863129,182.218658 
	C202.554825,181.959885 202.246521,181.701096 201.938232,181.442337 
	C201.774384,181.645615 201.610535,181.848907 201.446671,182.052185 
	C201.894669,182.348389 202.342682,182.644577 202.916306,183.505219 
	C203.154480,183.797729 203.392639,184.090256 203.808365,185.130661 
	C204.534927,192.649948 205.374069,200.160492 205.959015,207.690781 
	C206.658157,216.691208 212.520950,221.161316 220.893295,218.141785 
	C233.464874,213.607773 244.824799,206.920731 254.670807,197.010529 
	C254.834213,196.728500 254.997604,196.446487 255.702515,195.953491 
M261.835968,79.416283 
	C261.581818,79.422005 261.327667,79.427719 261.073517,79.433434 
	C261.274292,79.736710 261.475067,80.039993 261.801147,80.892433 
	C262.115814,81.061905 262.430511,81.231369 262.745178,81.400841 
	C262.523041,80.904091 262.300873,80.407333 261.835968,79.416283 
M243.464417,88.466194 
	C244.508026,85.979294 241.355453,81.353920 246.766327,81.183800 
	C249.873947,81.086090 253.014175,82.025391 256.139740,82.497856 
	C256.246002,82.302467 256.352295,82.107079 256.458557,81.911690 
	C252.523880,80.461807 248.589203,79.011925 244.377365,77.459908 
	C243.276489,78.510864 241.982666,79.746017 240.035599,81.164993 
	C239.717575,83.632530 239.394043,86.099426 239.108688,88.570732 
	C239.100342,88.643135 239.494720,88.762032 239.764496,88.888977 
	C239.968140,87.580818 240.160843,86.342888 240.498032,84.176888 
	C240.925568,85.611862 241.058411,86.057709 241.668686,86.805794 
	C241.775665,87.546188 241.882645,88.286575 242.082092,89.673355 
	C243.108047,90.925972 244.133987,92.178589 245.159943,93.431206 
	C245.546982,92.372688 245.419296,91.730629 245.061920,91.264771 
	C244.478760,90.504562 243.745773,89.859291 243.464417,88.466194 
M182.278687,415.567291 
	C183.079910,415.213562 183.881134,414.859833 184.682358,414.506073 
	C183.417908,413.604340 182.177170,412.022919 180.882812,411.977692 
	C179.358887,411.924530 177.395615,412.874054 176.412201,414.049286 
	C175.954437,414.596375 177.044815,416.994019 178.002945,418.022003 
	C179.060822,419.156982 180.771225,419.683838 182.197403,420.475555 
	C181.963837,420.960693 181.730286,421.445801 181.496719,421.930908 
	C179.814407,421.292267 178.132095,420.653595 176.449768,420.014954 
	C176.177292,420.526917 175.904831,421.038879 175.632355,421.550873 
	C177.334000,422.395142 179.026733,423.860870 180.740158,423.885498 
	C182.091660,423.904877 183.468658,422.150360 184.834320,421.183685 
	C183.372711,419.641510 181.911102,418.099365 181.104568,415.903503 
	C181.304718,415.668762 181.504852,415.434021 182.278687,415.567291 
M298.663269,373.026306 
	C298.663269,373.026306 299.071869,372.963928 299.654510,373.301605 
	C304.459900,379.342133 305.413666,379.367828 309.755707,373.574036 
	C308.616943,373.022858 307.153809,372.748901 306.400940,371.867950 
	C304.231720,369.329712 301.334778,366.973389 305.413574,363.253723 
	C308.117157,360.788116 308.985138,357.264740 306.021820,353.946838 
	C303.036255,350.604034 300.534302,352.283722 298.026031,354.630768 
	C297.472961,355.148254 296.706543,355.437775 296.080627,355.807343 
	C294.881104,354.311920 293.886444,353.071899 292.684479,351.573395 
	C290.423492,353.453033 288.427368,355.112488 287.355286,356.003754 
	C288.348328,358.633789 289.416077,360.391571 289.621094,362.244751 
	C289.965668,365.359009 289.538727,368.557373 289.865845,371.675262 
	C290.087860,373.791809 291.044098,375.831299 291.943420,378.801849 
	C294.643555,376.332520 296.446808,374.683380 298.663269,373.026306 
M233.988907,322.545776 
	C233.988907,322.545776 233.994904,322.928925 233.079422,323.032806 
	C228.145859,323.315735 223.212296,323.598694 218.278732,323.881622 
	C218.271271,324.440643 218.263809,324.999695 218.256348,325.558716 
	C220.405014,325.681580 222.552505,325.833740 224.702606,325.921082 
	C228.981339,326.094879 233.345245,325.760315 237.520782,326.500244 
	C243.309753,327.526062 248.806747,327.525696 253.950516,324.527710 
	C259.836517,321.097046 265.522247,321.117798 271.388733,324.583618 
	C278.203766,328.609772 284.988251,328.244629 291.613617,323.947021 
	C297.259521,320.284760 303.201843,317.223114 310.130951,317.360443 
	C324.413239,317.643433 335.359192,311.865845 343.777832,300.341034 
	C347.607574,295.098297 353.602112,292.579620 359.906464,291.020111 
	C361.974609,290.508514 364.457275,290.034058 365.796417,288.631653 
	C367.441406,286.908905 369.242645,283.994873 368.840332,282.034088 
	C368.436737,280.067169 365.565948,278.377808 363.459808,277.081177 
	C362.331787,276.386688 360.533447,276.651184 359.043671,276.694092 
	C341.248505,277.206329 324.801697,272.783752 309.677399,263.381836 
	C308.405457,262.591156 306.918121,262.146881 305.530853,261.541687 
	C305.375580,261.930115 305.220337,262.318542 305.065063,262.706970 
	C308.971130,265.165039 312.770813,267.815460 316.802795,270.045929 
	C330.056793,277.377930 344.293732,280.706482 359.456879,280.460632 
	C361.337952,280.430176 363.247894,282.182709 365.144470,283.108978 
	C363.529663,284.298462 362.069122,286.145844 360.274139,286.566681 
	C351.163147,288.702667 343.683899,293.239197 337.859894,300.551361 
	C332.235046,307.613464 325.463409,312.537567 315.930481,312.496094 
	C305.643921,312.451324 296.383453,315.598175 287.847107,321.339630 
	C283.147675,324.500427 278.076721,324.122650 273.192139,321.363617 
	C266.410522,317.533051 259.945953,317.756714 252.837158,321.289062 
	C248.809433,323.290405 243.678558,323.071625 239.357025,323.334381 
	C239.964218,322.687531 240.571426,322.040680 241.603058,320.941650 
	C239.362076,320.941650 237.768570,320.941650 235.454147,320.865845 
	C231.324585,319.280701 227.121124,316.212189 223.080566,316.413483 
	C214.161499,316.857758 209.326721,313.315125 205.911758,305.346558 
	C202.194489,296.672638 195.866455,294.247925 187.126740,297.814545 
	C182.142929,299.848419 177.713669,303.291992 173.133698,306.253876 
	C164.093658,312.100159 158.364853,311.396057 151.960632,303.100403 
	C152.138168,304.350433 152.103989,305.192535 152.384064,305.912384 
	C154.860855,312.278046 162.092667,315.018616 169.658539,311.742523 
	C174.642883,309.584290 179.081619,306.197906 183.882812,303.578033 
	C193.557953,298.298676 198.775391,299.844788 203.519348,309.537811 
	C206.859879,316.363281 211.562027,319.821198 219.669586,319.349365 
	C224.371185,319.075745 229.209213,321.146698 233.988907,322.545776 
M266.799988,153.723022 
	C267.225006,157.146698 267.650024,160.570358 268.123901,164.772995 
	C271.939026,173.316208 270.731964,181.553802 265.463989,188.845642 
	C261.511322,194.316910 256.854340,199.421417 251.853806,203.966202 
	C238.360413,216.229828 223.749649,226.806030 205.557755,231.149780 
	C195.657120,233.513794 191.292603,230.863052 191.332870,220.722855 
	C191.378113,209.325623 192.932571,197.934387 193.869431,185.865570 
	C193.536743,185.407440 193.204071,184.949295 192.871384,184.491165 
	C192.590317,185.020264 192.309235,185.549347 191.850006,186.800262 
	C188.082840,202.159668 184.506027,217.522888 191.114914,233.404114 
	C187.972443,233.404114 185.011917,233.500443 182.059692,233.384811 
	C175.104584,233.112411 168.117035,233.461548 162.680435,238.239410 
	C156.717941,243.479477 150.436874,245.981949 142.302368,245.528717 
	C133.679306,245.048264 126.660973,251.905396 125.478592,260.297241 
	C124.548729,266.896790 128.336105,270.559143 134.774933,268.868622 
	C138.327042,267.936066 140.209335,269.379150 141.508942,272.236053 
	C142.191544,273.736633 142.635132,275.374695 142.981201,276.994568 
	C144.468842,283.957855 148.621201,289.131439 155.256119,290.890076 
	C163.027725,292.950073 171.218552,294.790161 179.166275,294.564911 
	C201.667068,293.927185 220.531097,284.202179 236.501495,268.676178 
	C252.262695,253.353561 262.131439,234.421768 269.526489,214.016052 
	C270.095398,212.446259 270.807159,210.928253 271.539703,209.177811 
	C273.298279,226.395493 275.156769,243.105484 276.665558,259.846954 
	C277.815155,272.602905 276.085815,285.023346 271.316772,297.023438 
	C275.992462,290.970825 278.814484,283.882019 278.858734,276.430603 
	C278.946472,261.658783 278.040924,246.878937 277.454132,232.106064 
	C277.140564,224.210800 276.635803,216.323151 276.217316,208.432068 
	C276.680481,208.330322 277.143646,208.228577 277.606842,208.126831 
	C278.331909,209.677795 279.051697,211.231262 279.782867,212.779358 
	C288.999756,232.293961 301.721375,248.390106 322.148163,257.340820 
	C335.886841,263.360931 349.846985,263.291168 364.209015,260.419952 
	C373.447815,258.572998 375.088104,260.345795 374.313873,269.315277 
	C375.196869,266.553558 376.755890,262.672028 375.496613,261.197632 
	C373.734894,259.134979 369.935760,258.541016 366.885925,257.945251 
	C364.848419,257.547241 362.572418,258.092529 360.446991,258.465515 
	C339.190582,262.195862 321.047119,255.651505 305.136108,241.756775 
	C304.072601,240.828018 303.307343,239.557693 302.403351,238.446243 
	C303.743774,238.059067 304.421417,238.167435 304.911377,238.529648 
	C313.199707,244.657150 322.336823,246.257950 332.370453,244.170639 
	C335.245453,243.572556 338.407715,243.561279 341.287537,244.094589 
	C342.875031,244.388550 344.149506,246.372635 345.565063,247.594788 
	C344.274078,248.880035 343.192719,250.755188 341.640991,251.306534 
	C339.530182,252.056534 337.062561,251.864960 334.743317,251.948349 
	C332.338165,252.034836 329.927490,251.967636 327.519257,251.967636 
	C327.528076,252.680969 327.536926,253.394302 327.545746,254.107635 
	C332.795959,254.107635 338.126770,254.636444 343.257690,253.854218 
	C345.388092,253.529449 348.499329,250.494980 348.626190,248.528961 
	C348.778320,246.170670 346.791687,242.503265 344.700134,241.449677 
	C341.669556,239.923065 337.486969,239.209076 334.194855,239.941742 
	C322.494049,242.545685 312.348175,239.667542 303.326355,232.394302 
	C291.261810,222.668091 282.374969,210.552643 278.055206,195.542450 
	C275.044830,185.082077 275.333405,173.745941 270.439972,163.730438 
	C272.071136,161.125626 274.723053,158.678131 275.153076,155.888199 
	C276.823151,145.052811 277.847382,134.114838 278.981689,123.201515 
	C279.386658,119.305061 277.912964,116.977448 273.470367,116.664253 
	C268.540253,116.316673 265.650848,113.471481 265.300079,108.258705 
	C265.231934,107.245926 264.223083,105.548332 263.526733,105.484169 
	C262.145782,105.356918 260.680237,106.148064 259.144714,106.589813 
	C259.257141,102.103172 255.734467,100.624092 251.611938,99.564743 
	C249.180878,98.940041 246.858337,97.892960 244.487000,97.035828 
	C245.295425,99.394165 246.026321,101.782738 246.931488,104.103340 
	C248.124954,107.163063 249.634674,109.887932 253.682861,108.212494 
	C255.048859,113.899879 252.611221,117.424553 246.399872,119.085266 
	C238.419174,121.219040 237.438812,122.621742 237.444794,130.874985 
	C237.448547,136.033554 237.455048,141.221359 236.947906,146.345337 
	C235.612381,159.839218 227.353226,168.297760 214.106842,170.186050 
	C210.482559,170.702698 206.733215,170.867371 203.293518,171.976105 
	C200.834366,172.768768 198.796188,174.867416 196.133423,176.619644 
	C195.980881,176.953384 195.828339,177.287125 195.675812,177.620895 
	C196.122864,177.421173 196.569901,177.221451 197.831100,176.874161 
	C201.243530,176.504761 204.913818,176.815872 208.020233,175.638824 
	C217.467255,172.059265 227.050095,170.593277 237.140503,171.218185 
	C243.219406,171.594650 247.291153,167.698669 247.790237,161.772812 
	C247.979187,159.529068 247.306458,157.212753 246.999832,154.314590 
	C246.381851,153.554962 245.763885,152.795319 245.036224,151.216202 
	C245.567993,148.431259 246.099762,145.646317 246.803345,141.961548 
	C251.217987,145.833344 254.789841,148.965988 258.697662,152.393295 
	C261.454926,149.895554 264.162659,147.442657 266.870392,144.989761 
	C267.195557,145.180038 267.520752,145.370300 267.845917,145.560577 
	C267.580109,147.369293 267.314301,149.178009 266.481903,151.057983 
	C266.135315,151.323944 265.788757,151.589905 265.442169,151.855865 
	C265.843781,152.214050 266.245422,152.572220 266.799988,153.723022 
M178.748886,374.258789 
	C180.188965,372.507690 181.629028,370.756592 183.153473,368.902893 
	C184.858582,372.351410 186.313324,375.293579 187.819229,378.339203 
	C196.121323,372.703064 201.052551,364.009369 201.067917,355.889496 
	C201.075577,351.841919 199.238281,350.262115 195.448685,351.625488 
	C192.700150,352.614319 190.208954,354.318420 187.584579,355.713379 
	C183.172226,350.523224 182.657791,350.592316 176.628494,357.261719 
	C182.587662,360.046509 183.659454,364.595947 178.908295,369.196503 
	C177.555695,365.635681 176.293854,362.279572 175.007141,358.933044 
	C171.699860,350.331268 170.531097,350.082153 163.890381,356.572754 
	C163.691315,356.767303 163.713303,357.187988 163.723404,357.148743 
	C171.880157,361.714722 169.063858,372.201782 175.203568,378.091888 
	C176.336548,376.881317 177.314407,375.836456 178.748886,374.258789 
M87.299416,356.961426 
	C89.902885,358.499115 91.354057,360.405609 89.538719,363.622131 
	C86.601448,360.118683 84.068687,356.576691 80.945480,353.668915 
	C79.920120,352.714325 77.193268,352.913757 75.556541,353.482880 
	C73.986992,354.028595 72.822090,355.738068 71.681747,356.755524 
	C78.613960,362.505798 70.907608,372.193054 77.692406,377.971436 
	C79.632538,376.339935 81.374535,374.875031 83.116524,373.410156 
	C82.623802,373.358398 82.131073,373.306641 81.638351,373.254883 
	C81.242729,370.298248 80.847107,367.341583 80.451485,364.384949 
	C80.902634,364.262390 81.353783,364.139862 81.804939,364.017303 
	C85.449257,368.776825 89.093575,373.536346 92.815758,378.397552 
	C95.342033,376.325989 97.116600,374.870850 98.829948,373.465881 
	C92.844482,367.165222 99.832245,357.851593 93.277313,351.578979 
	C91.187401,353.339569 89.421791,354.826965 87.299416,356.961426 
M255.313278,377.961060 
	C256.969666,377.296082 259.403870,375.581787 260.154724,376.138428 
	C264.633179,379.458160 265.528198,374.615356 268.601990,373.193451 
	C263.091705,370.700378 266.836273,368.016144 268.099152,365.157074 
	C263.472534,365.678864 258.718414,363.348938 255.396957,368.134552 
	C255.121765,368.531067 252.222031,367.987061 252.051102,367.422760 
	C251.302368,364.951233 250.522507,362.230072 250.864822,359.752960 
	C251.288330,356.688324 253.799118,355.122925 256.094452,358.020905 
	C259.925049,362.857178 262.882446,361.161530 266.208649,357.688568 
	C261.906189,355.148346 259.238342,348.633392 252.614105,353.357849 
	C246.955261,357.393829 243.734665,362.621429 244.986053,367.914703 
	C246.188751,373.002075 248.527405,377.315857 255.313278,377.961060 
M409.876160,368.610657 
	C410.541626,369.303589 411.544403,369.888153 411.808472,370.710022 
	C412.560364,373.050385 413.011261,375.487427 413.780823,378.729980 
	C416.685730,376.387146 418.550079,374.883514 420.194641,373.557159 
	C414.465271,366.981445 421.188110,357.747192 414.684967,351.582123 
	C412.361847,353.512268 410.363251,355.172791 409.263306,356.086670 
	C410.533447,358.893494 411.494354,361.017029 412.782135,363.862854 
	C409.413208,363.862854 407.367065,363.862854 405.681091,363.862854 
	C404.784698,359.576355 403.967407,355.668274 402.908539,350.604858 
	C399.566101,353.508881 397.645844,355.177246 395.988129,356.617554 
	C402.661987,362.824097 395.401794,372.067841 401.861359,378.015045 
	C403.855682,376.421295 405.724487,374.927826 407.192505,373.754669 
	C406.304688,372.098389 405.692291,370.955902 405.079895,369.813446 
	C406.406433,369.446564 407.732971,369.079651 409.876160,368.610657 
M343.414978,367.080688 
	C345.125458,368.684692 346.835907,370.288727 348.546356,371.892761 
	C348.089172,372.448608 347.631958,373.004486 347.174744,373.560364 
	C344.816650,372.177795 342.458557,370.795197 339.508301,369.065430 
	C338.365631,370.253357 336.706940,371.977783 335.017029,373.734650 
	C337.553406,378.049255 341.521820,379.231018 345.034851,377.552673 
	C348.655670,375.822784 351.777374,372.595551 354.242401,369.357330 
	C354.640106,368.834900 350.595581,364.729492 348.389832,362.491913 
	C346.701813,360.779572 344.675079,359.401062 342.798981,357.874023 
	C343.188965,357.361877 343.578918,356.849701 343.968872,356.337555 
	C345.692047,357.409241 347.415253,358.480927 349.500793,359.777985 
	C351.048248,358.066406 352.843140,356.081116 354.731842,353.992096 
	C347.446655,349.672180 340.128052,351.806305 337.337585,358.830994 
	C336.825623,360.119812 337.469482,362.358154 338.364838,363.585541 
	C339.374512,364.969604 341.271606,365.706299 343.414978,367.080688 
M381.326202,352.603119 
	C371.568420,360.276093 373.060547,362.876556 381.891388,367.384308 
	C382.333984,367.610229 382.818787,367.845673 383.137207,368.206268 
	C384.276550,369.496704 385.352661,370.842987 386.452728,372.168152 
	C386.003387,372.641083 385.554047,373.114044 385.104706,373.586975 
	C382.751648,372.149475 380.398560,370.711945 378.014587,369.255524 
	C376.533112,370.588745 374.755951,372.188049 373.028564,373.742554 
	C377.346008,379.014801 382.565369,379.368958 388.199768,375.186432 
	C394.029297,370.859009 394.025421,367.929596 388.221436,363.702484 
	C385.679047,361.850830 383.178986,359.941071 380.659729,358.057678 
	C381.054230,357.491974 381.448761,356.926239 381.843262,356.360535 
	C383.579193,357.394806 385.315125,358.429047 387.486816,359.722900 
	C388.984650,358.104828 390.811340,356.131500 392.638062,354.158173 
	C392.480011,353.535797 392.321960,352.913452 392.163910,352.291107 
	C388.755066,352.252991 385.346222,352.214905 381.326202,352.603119 
M66.054703,356.635468 
	C61.083481,350.626831 59.032356,350.404236 53.052685,355.232391 
	C51.886192,356.174286 50.671177,357.066376 49.580605,358.090179 
	C45.200680,362.202026 45.643597,369.050568 50.606941,374.627533 
	C54.161869,378.621948 54.703491,378.557312 61.054829,373.384094 
	C61.571594,372.963135 62.091721,372.546265 62.609554,372.126617 
	C68.278564,367.532318 69.118851,364.258606 66.054703,356.635468 
M211.400009,354.958191 
	C202.928879,361.766479 202.455673,370.360748 210.388229,376.208008 
	C211.426300,376.973175 213.684174,377.397308 214.586578,376.795044 
	C217.735474,374.693451 220.796616,372.319977 223.409637,369.589142 
	C227.215805,365.611450 226.647827,358.922455 222.577759,354.715790 
	C219.032135,351.051178 216.276657,351.001007 211.400009,354.958191 
M439.086731,372.536224 
	C440.103455,371.689667 441.222107,370.938538 442.119263,369.980103 
	C446.066925,365.762817 445.796722,359.068176 441.570923,354.708771 
	C437.811340,350.830322 435.306244,350.986298 429.776794,355.450714 
	C428.746582,356.282471 427.683563,357.080627 426.712708,357.977661 
	C422.257324,362.094391 422.551910,368.727509 427.411835,374.408997 
	C431.045593,378.656952 431.717407,378.588043 438.147827,373.307953 
	C438.275787,373.202881 438.404633,373.098907 439.086731,372.536224 
M117.674156,366.622864 
	C118.562920,365.637634 119.451675,364.652435 120.991592,362.945374 
	C118.524376,362.785370 117.239670,362.693634 115.953888,362.620941 
	C114.489426,362.538116 113.024002,362.472260 111.386719,362.390442 
	C111.386719,360.464752 111.386719,358.799774 111.386719,357.089447 
	C117.872345,357.853088 119.593445,357.050842 122.402405,352.118988 
	C115.317162,352.421539 107.639549,349.943329 102.529724,356.348297 
	C107.565575,363.193970 103.928566,370.633545 105.124565,377.418274 
	C111.301376,377.795898 118.073936,379.442902 121.514084,371.666443 
	C117.976753,371.666443 114.582779,371.666443 111.254227,371.666443 
	C111.254227,369.965118 111.254227,368.687592 111.254227,367.166351 
	C113.282150,367.065765 115.078552,366.976685 117.674156,366.622864 
M461.282715,353.720215 
	C460.115479,354.598511 458.948242,355.476807 457.864868,356.291992 
	C456.743042,354.614532 455.786133,353.183655 454.615112,351.432648 
	C452.176636,353.443268 450.169464,355.098236 448.508179,356.468018 
	C454.826050,362.634613 447.920715,372.039459 454.366852,377.986877 
	C456.368103,376.372986 458.222260,374.877747 459.972992,373.465881 
	C458.829773,371.989105 458.055145,370.988495 457.116425,369.775879 
	C465.223846,367.260742 469.392059,362.803406 469.114960,357.484100 
	C468.876495,352.905792 466.047455,351.238190 461.282715,353.720215 
M156.723236,352.057617 
	C151.187744,351.006897 145.996979,351.041595 142.071930,356.808258 
	C144.565186,356.808258 146.591385,356.808258 148.513428,356.808258 
	C150.377731,363.871155 146.621063,371.404968 151.643768,378.165131 
	C153.861862,376.400970 155.734695,374.911407 156.636780,374.193909 
	C153.695404,368.195587 155.318649,362.756836 155.046555,358.653107 
	C158.597168,356.481049 161.326385,354.811493 164.055603,353.141937 
	C163.865250,352.795654 163.674911,352.449371 163.484573,352.103088 
	C161.522903,352.103088 159.561249,352.103088 156.723236,352.057617 
M259.961304,183.830841 
	C259.327850,183.946487 258.509705,183.847946 258.089264,184.210556 
	C253.408325,188.247467 247.926956,189.415619 241.888947,189.350647 
	C231.655685,189.240509 222.365417,186.018448 213.359955,181.524170 
	C210.926956,180.309937 208.287994,179.508469 205.743561,178.517532 
	C208.336044,181.405838 211.386841,183.313599 214.347412,185.352386 
	C221.359390,190.181198 229.217072,192.799774 237.578568,193.495392 
	C246.377960,194.227448 254.487183,192.456497 259.961304,183.830841 
M316.114410,372.935089 
	C315.981293,374.472321 315.848145,376.009552 315.739716,377.261780 
	C321.596832,377.485840 327.846008,379.441315 330.744568,371.755249 
	C327.840729,371.755249 325.114349,371.755249 322.546600,371.755249 
	C320.533630,365.009674 324.326385,357.828796 319.474976,351.320557 
	C316.973785,353.439148 314.917725,355.180664 313.594818,356.301208 
	C314.709320,358.624573 315.890656,360.053925 316.024475,361.575409 
	C316.329620,365.045380 316.121368,368.560455 316.114410,372.935089 
M275.164734,371.045898 
	C275.906372,373.354004 276.647980,375.662109 277.570648,378.533752 
	C280.328613,376.270020 282.090332,374.824005 283.573853,373.606323 
	C277.526123,367.159576 284.585327,357.925079 278.227112,351.597748 
	C275.971985,353.442810 273.967194,355.083069 272.875946,355.975922 
	C273.872253,358.672119 274.860046,360.370361 275.076569,362.161865 
	C275.394012,364.788361 275.159454,367.481537 275.164734,371.045898 
M205.312561,412.365997 
	C205.312561,416.192200 205.312561,420.018372 205.312561,423.844574 
	C205.793137,423.926208 206.273712,424.007812 206.754288,424.089417 
	C207.224335,422.293243 207.694366,420.497101 208.185104,418.621857 
	C209.868179,420.540497 211.521439,422.425140 213.527557,424.712036 
	C213.527557,419.719238 213.527557,415.859375 213.527557,411.999481 
	C213.132370,412.025787 212.737183,412.052094 212.341995,412.078369 
	C212.101151,413.872925 211.860306,415.667450 211.614822,417.496521 
	C209.620087,415.532440 207.845886,413.785522 205.312561,412.365997 
M223.836380,422.462830 
	C228.546509,425.239868 230.424881,424.706665 231.618225,419.813416 
	C229.848114,420.519196 228.338547,421.121063 226.351730,421.913208 
	C226.351730,418.961517 226.351730,416.575378 226.351730,413.630066 
	C228.547806,414.675995 229.994217,415.364899 231.440643,416.053772 
	C231.741470,415.513092 232.042297,414.972412 232.343124,414.431732 
	C230.633865,413.546051 228.787430,411.780121 227.253479,412.019226 
	C225.680542,412.264404 223.801498,414.240143 223.181885,415.882965 
	C222.544128,417.573914 223.264755,419.777161 223.836380,422.462830 
M320.239258,423.791962 
	C322.118317,422.957123 323.997375,422.122284 325.876465,421.287476 
	C324.526215,418.989136 323.175964,416.690826 321.807159,414.360962 
	C322.487823,414.170532 324.013977,413.743500 325.540131,413.316498 
	C325.491150,412.998749 325.442169,412.681030 325.393188,412.363281 
	C322.995880,412.363281 320.598602,412.363281 318.318787,412.363281 
	C318.318787,414.760376 318.318787,416.825928 318.318787,418.140106 
	C320.274750,419.034027 321.662079,419.668091 323.049408,420.302124 
	C322.848053,420.760651 322.646698,421.219177 322.445343,421.677673 
	C321.152771,421.319458 319.860229,420.961243 317.546326,420.319946 
	C318.638916,421.944336 319.130646,422.675415 320.239258,423.791962 
M292.562927,413.621216 
	C290.495850,413.238129 288.428741,412.855072 286.361664,412.471985 
	C285.865387,415.297241 284.897034,418.157013 285.099792,420.931152 
	C285.183624,422.078308 287.734650,423.767334 289.244049,423.857086 
	C290.427948,423.927460 292.420868,422.123322 292.826294,420.781036 
	C293.421692,418.810028 292.921783,416.508209 292.562927,413.621216 
M303.002594,415.860901 
	C303.990723,415.356842 304.978882,414.852783 305.967010,414.348694 
	C306.253235,414.665894 306.539490,414.983093 306.825714,415.300293 
	C304.960571,417.936462 303.095398,420.572632 300.556152,424.161560 
	C304.506317,423.958466 307.095795,423.825317 309.685242,423.692169 
	C309.697113,423.317657 309.708954,422.943146 309.720825,422.568604 
	C308.484772,422.172760 307.248749,421.776886 305.842743,421.326599 
	C307.135773,419.470306 308.472748,418.102203 309.086487,416.463257 
	C309.455139,415.478790 309.044739,413.320282 308.372101,413.007904 
	C306.872314,412.311340 304.943665,412.152527 303.287445,412.407990 
	C302.774902,412.487030 302.577576,414.609589 303.002594,415.860901 
M273.083069,411.868591 
	C268.598785,412.272095 268.598785,412.272095 268.706116,416.050232 
	C270.089935,415.388245 271.360321,414.780548 272.630707,414.172852 
	C272.907410,414.449554 273.184113,414.726257 273.460785,415.002960 
	C271.550964,417.760468 269.641144,420.517944 267.571564,423.506134 
	C270.994720,423.506134 273.582428,423.506134 276.170166,423.506134 
	C276.195984,423.198212 276.221802,422.890289 276.247620,422.582336 
	C274.993073,422.204620 273.738525,421.826904 272.459747,421.441864 
	C273.351624,418.337830 279.357513,415.979980 273.083069,411.868591 
M271.397125,90.006485 
	C269.923950,89.626610 268.450745,89.246742 266.977570,88.866867 
	C266.903320,89.317711 266.829071,89.768547 266.754852,90.219383 
	C267.786255,90.364891 268.817688,90.510399 269.849121,90.655899 
	C269.947571,91.021782 270.046051,91.387657 270.144501,91.753532 
	C266.515076,93.454948 262.885651,95.156357 259.256226,96.857773 
	C259.411285,97.221054 259.566315,97.584328 259.721344,97.947609 
	C263.310822,96.638786 266.900269,95.329964 269.998016,94.200432 
	C271.355530,97.010498 272.524811,99.430862 273.694061,101.851234 
	C274.230957,101.646523 274.767822,101.441818 275.304718,101.237106 
	C274.087738,97.737457 272.870789,94.237801 271.397125,90.006485 
M244.672195,419.011230 
	C245.464813,418.728333 246.257446,418.445435 247.429840,418.027008 
	C245.582474,416.987701 244.271591,416.250183 241.663940,414.783142 
	C245.220581,414.123108 247.106415,413.773132 248.992249,413.423157 
	C248.932083,413.060760 248.871902,412.698334 248.811737,412.335938 
	C246.332565,412.335938 243.853378,412.335938 241.189453,412.335938 
	C241.189453,416.191772 241.189453,419.917786 241.189453,423.509583 
	C243.972961,423.509583 246.424179,423.509583 248.875381,423.509583 
	C247.596451,422.212219 246.142548,422.335815 244.993851,421.802277 
	C244.364960,421.510193 244.251770,420.107758 244.672195,419.011230 
M136.806610,368.966309 
	C137.878860,368.059814 138.951111,367.153320 140.606110,365.754181 
	C130.518875,364.439392 129.182358,364.766022 127.029686,369.069519 
	C130.165115,369.069519 133.062378,369.069519 136.806610,368.966309 
M259.709320,77.878029 
	C255.848557,75.104141 251.801300,74.178703 247.450455,76.461021 
	C251.636765,77.170319 255.823090,77.879616 259.709320,77.878029 
M212.763885,323.152832 
	C212.573151,323.797974 212.382416,324.443115 212.191681,325.088257 
	C212.598511,325.201935 213.005325,325.315582 213.412155,325.429260 
	C213.380722,324.742218 213.349274,324.055145 212.763885,323.152832 
M195.393051,180.919495 
	C195.217148,180.447327 195.041245,179.975143 194.865341,179.502960 
	C194.481003,179.978546 194.096664,180.454132 193.712326,180.929733 
	C194.148804,181.064896 194.585266,181.200043 195.393051,180.919495 
M207.803833,323.392181 
	C208.303925,323.710876 208.804001,324.029541 209.304092,324.348236 
	C209.376968,324.071320 209.554398,323.574860 209.506332,323.551941 
	C209.093292,323.355286 208.639511,323.244141 207.803833,323.392181 
M268.446808,101.347847 
	C268.570892,101.414154 268.692017,101.526550 268.819855,101.534866 
	C268.973022,101.544838 269.131958,101.465958 269.288391,101.425545 
	C269.242950,101.256584 269.197510,101.087624 269.152069,100.918663 
	C269.017181,101.011810 268.882294,101.104965 268.446808,101.347847 
M261.539093,179.901825 
	C261.435455,180.583572 261.331818,181.265320 261.228180,181.947067 
	C261.744171,181.719635 261.907562,181.459381 261.945618,181.181931 
	C261.986023,180.887482 261.907410,180.576706 261.539093,179.901825 
M240.657410,92.374084 
	C240.581284,92.121979 240.505157,91.869873 240.429031,91.617775 
	C240.150711,91.889603 239.872391,92.161430 239.594055,92.433250 
	C239.844498,92.515068 240.094925,92.596878 240.657410,92.374084 
M204.636902,321.542114 
	C204.943710,321.770416 205.250504,321.998718 205.557297,322.227020 
	C205.359726,321.910980 205.162155,321.594940 204.636902,321.542114 
M202.828461,318.720886 
	C202.975052,318.614716 203.121628,318.508545 203.268204,318.402374 
	C203.065964,318.422913 202.863724,318.443481 202.828461,318.720886 
z"/>
<path fill="#B35A59" opacity="1.000000" stroke="none" 
	d="
M193.830475,186.540543 
	C192.932571,197.934387 191.378113,209.325623 191.332870,220.722855 
	C191.292603,230.863052 195.657120,233.513794 205.557755,231.149780 
	C223.749649,226.806030 238.360413,216.229828 251.853806,203.966202 
	C256.854340,199.421417 261.511322,194.316910 265.463989,188.845642 
	C270.731964,181.553802 271.939026,173.316208 268.380737,164.379578 
	C269.012115,163.971603 269.386658,163.957031 269.761169,163.942459 
	C275.333405,173.745941 275.044830,185.082077 278.055206,195.542450 
	C282.374969,210.552643 291.261810,222.668091 303.326355,232.394302 
	C312.348175,239.667542 322.494049,242.545685 334.194855,239.941742 
	C337.486969,239.209076 341.669556,239.923065 344.700134,241.449677 
	C346.791687,242.503265 348.778320,246.170670 348.626190,248.528961 
	C348.499329,250.494980 345.388092,253.529449 343.257690,253.854218 
	C338.126770,254.636444 332.795959,254.107635 327.545746,254.107635 
	C327.536926,253.394302 327.528076,252.680969 327.519257,251.967636 
	C329.927490,251.967636 332.338165,252.034836 334.743317,251.948349 
	C337.062561,251.864960 339.530182,252.056534 341.640991,251.306534 
	C343.192719,250.755188 344.274078,248.880035 345.565063,247.594788 
	C344.149506,246.372635 342.875031,244.388550 341.287537,244.094589 
	C338.407715,243.561279 335.245453,243.572556 332.370453,244.170639 
	C322.336823,246.257950 313.199707,244.657150 304.911377,238.529648 
	C304.421417,238.167435 303.743774,238.059067 302.403351,238.446243 
	C303.307343,239.557693 304.072601,240.828018 305.136108,241.756775 
	C321.047119,255.651505 339.190582,262.195862 360.446991,258.465515 
	C362.572418,258.092529 364.848419,257.547241 366.885925,257.945251 
	C369.935760,258.541016 373.734894,259.134979 375.496613,261.197632 
	C376.755890,262.672028 375.196869,266.553558 374.313873,269.315277 
	C375.088104,260.345795 373.447815,258.572998 364.209015,260.419952 
	C349.846985,263.291168 335.886841,263.360931 322.148163,257.340820 
	C301.721375,248.390106 288.999756,232.293961 279.782867,212.779358 
	C279.051697,211.231262 278.331909,209.677795 277.606842,208.126831 
	C277.143646,208.228577 276.680481,208.330322 276.217316,208.432068 
	C276.635803,216.323151 277.140564,224.210800 277.454132,232.106064 
	C278.040924,246.878937 278.946472,261.658783 278.858734,276.430603 
	C278.814484,283.882019 275.992462,290.970825 271.316772,297.023438 
	C276.085815,285.023346 277.815155,272.602905 276.665558,259.846954 
	C275.156769,243.105484 273.298279,226.395493 271.539703,209.177811 
	C270.807159,210.928253 270.095398,212.446259 269.526489,214.016052 
	C262.131439,234.421768 252.262695,253.353561 236.501495,268.676178 
	C220.531097,284.202179 201.667068,293.927185 179.166275,294.564911 
	C171.218552,294.790161 163.027725,292.950073 155.256119,290.890076 
	C148.621201,289.131439 144.468842,283.957855 142.981201,276.994568 
	C142.635132,275.374695 142.191544,273.736633 141.508942,272.236053 
	C140.209335,269.379150 138.327042,267.936066 134.774933,268.868622 
	C128.336105,270.559143 124.548729,266.896790 125.478592,260.297241 
	C126.660973,251.905396 133.679306,245.048264 142.302368,245.528717 
	C150.436874,245.981949 156.717941,243.479477 162.680435,238.239410 
	C168.117035,233.461548 175.104584,233.112411 182.059692,233.384811 
	C185.011917,233.500443 187.972443,233.404114 191.114914,233.404114 
	C184.506027,217.522888 188.082840,202.159668 192.253418,186.442169 
	C193.048050,186.236221 193.439255,186.388382 193.830475,186.540543 
M145.344986,270.332642 
	C147.352707,284.928345 157.463547,289.250519 170.371811,290.371948 
	C186.146545,291.742432 200.942322,288.450836 214.559341,280.705536 
	C243.271683,264.374176 259.292542,238.321838 269.066162,207.764954 
	C271.376190,200.542648 271.840576,193.056778 271.073303,184.637024 
	C268.333893,188.793396 266.541992,192.414688 263.943787,195.313217 
	C240.784973,221.148834 214.263382,240.062256 177.186066,237.892731 
	C172.967651,237.645889 167.803635,239.560089 164.408905,242.190063 
	C157.631836,247.440430 150.856262,250.564301 142.012894,249.850632 
	C135.314606,249.310089 129.562180,255.630524 129.748535,261.739410 
	C129.822495,264.164154 130.597916,265.800720 133.361679,264.759674 
	C138.855087,262.690521 142.276978,265.283508 145.344986,270.332642 
M301.470856,236.262177 
	C301.116486,236.442444 300.762085,236.622711 300.407715,236.802994 
	C300.515564,236.928726 300.642670,237.173431 300.727997,237.159637 
	C301.106354,237.098480 301.472687,236.963165 301.470856,236.262177 
z"/>
<path fill="#AF5252" opacity="1.000000" stroke="none" 
	d="
M270.100586,163.836456 
	C269.386658,163.957031 269.012115,163.971603 268.356323,163.990112 
	C267.650024,160.570358 267.225006,157.146698 267.013611,153.252106 
	C267.167603,152.183044 267.108032,151.584885 267.048462,150.986725 
	C267.314301,149.178009 267.580109,147.369293 267.845917,145.560577 
	C267.520752,145.370300 267.195557,145.180038 266.870392,144.989761 
	C264.162659,147.442657 261.454926,149.895554 258.697662,152.393295 
	C254.789841,148.965988 251.217987,145.833344 246.803345,141.961548 
	C246.099762,145.646317 245.567993,148.431259 244.798370,151.862244 
	C243.874527,159.998734 240.360092,165.507553 231.483398,168.382034 
	C242.745651,169.399323 245.599075,166.878876 246.073746,157.412445 
	C246.115936,156.570999 246.696152,155.756531 247.026489,154.929520 
	C247.306458,157.212753 247.979187,159.529068 247.790237,161.772812 
	C247.291153,167.698669 243.219406,171.594650 237.140503,171.218185 
	C227.050095,170.593277 217.467255,172.059265 208.020233,175.638824 
	C204.913818,176.815872 201.243530,176.504761 197.316483,176.785446 
	C196.801865,176.696732 196.570190,176.383347 196.570190,176.383347 
	C198.796188,174.867416 200.834366,172.768768 203.293518,171.976105 
	C206.733215,170.867371 210.482559,170.702698 214.106842,170.186050 
	C227.353226,168.297760 235.612381,159.839218 236.947906,146.345337 
	C237.455048,141.221359 237.448547,136.033554 237.444794,130.874985 
	C237.438812,122.621742 238.419174,121.219040 246.399872,119.085266 
	C252.611221,117.424553 255.048859,113.899879 253.682861,108.212494 
	C249.634674,109.887932 248.124954,107.163063 246.931488,104.103340 
	C246.026321,101.782738 245.295425,99.394165 244.487000,97.035828 
	C246.858337,97.892960 249.180878,98.940041 251.611938,99.564743 
	C255.734467,100.624092 259.257141,102.103172 259.144714,106.589813 
	C260.680237,106.148064 262.145782,105.356918 263.526733,105.484169 
	C264.223083,105.548332 265.231934,107.245926 265.300079,108.258705 
	C265.650848,113.471481 268.540253,116.316673 273.470367,116.664253 
	C277.912964,116.977448 279.386658,119.305061 278.981689,123.201515 
	C277.847382,134.114838 276.823151,145.052811 275.153076,155.888199 
	C274.723053,158.678131 272.071136,161.125626 270.100586,163.836456 
M268.646698,142.626343 
	C269.038116,142.552353 269.429504,142.478348 269.820923,142.404358 
	C269.715668,142.130981 269.610413,141.857605 269.505157,141.584229 
	C269.267914,141.702515 269.030640,141.820801 268.646698,142.626343 
M268.350983,144.882431 
	C268.415558,144.674744 268.480164,144.467041 268.544739,144.259354 
	C268.347321,144.329590 268.149872,144.399811 268.350983,144.882431 
z"/>
<path fill="#B25958" opacity="1.000000" stroke="none" 
	d="
M239.044556,323.852783 
	C243.678558,323.071625 248.809433,323.290405 252.837158,321.289062 
	C259.945953,317.756714 266.410522,317.533051 273.192139,321.363617 
	C278.076721,324.122650 283.147675,324.500427 287.847107,321.339630 
	C296.383453,315.598175 305.643921,312.451324 315.930481,312.496094 
	C325.463409,312.537567 332.235046,307.613464 337.859894,300.551361 
	C343.683899,293.239197 351.163147,288.702667 360.274139,286.566681 
	C362.069122,286.145844 363.529663,284.298462 365.144470,283.109009 
	C363.247894,282.182709 361.337952,280.430176 359.456879,280.460632 
	C344.293732,280.706482 330.056793,277.377930 316.802795,270.045929 
	C312.770813,267.815460 308.971130,265.165039 305.065063,262.706970 
	C305.220337,262.318542 305.375580,261.930115 305.530853,261.541687 
	C306.918121,262.146881 308.405457,262.591156 309.677399,263.381836 
	C324.801697,272.783752 341.248505,277.206329 359.043671,276.694092 
	C360.533447,276.651184 362.331787,276.386688 363.459808,277.081177 
	C365.565948,278.377808 368.436737,280.067169 368.840332,282.034088 
	C369.242645,283.994873 367.441406,286.908905 365.796417,288.631653 
	C364.457275,290.034058 361.974609,290.508514 359.906464,291.020111 
	C353.602112,292.579620 347.607574,295.098297 343.777832,300.341034 
	C335.359192,311.865845 324.413239,317.643433 310.130951,317.360443 
	C303.201843,317.223114 297.259521,320.284760 291.613617,323.947021 
	C284.988251,328.244629 278.203766,328.609772 271.388733,324.583618 
	C265.522247,321.117798 259.836517,321.097046 253.950516,324.527710 
	C248.806747,327.525696 243.309753,327.526062 237.520782,326.500244 
	C233.345245,325.760315 228.981339,326.094879 224.702606,325.921082 
	C222.552505,325.833740 220.405014,325.681580 218.256348,325.558716 
	C218.263809,324.999695 218.271271,324.440643 218.278732,323.881622 
	C223.212296,323.598694 228.145859,323.315735 233.877594,323.124878 
	C236.132019,323.428894 237.588287,323.640839 239.044556,323.852783 
z"/>
<path fill="#B15555" opacity="1.000000" stroke="none" 
	d="
M178.520584,374.525208 
	C177.314407,375.836456 176.336548,376.881317 175.203568,378.091888 
	C169.063858,372.201782 171.880157,361.714722 163.723404,357.148743 
	C163.713303,357.187988 163.691315,356.767303 163.890381,356.572754 
	C170.531097,350.082153 171.699860,350.331268 175.007141,358.933044 
	C176.293854,362.279572 177.555695,365.635681 178.908295,369.196503 
	C183.659454,364.595947 182.587662,360.046509 176.628494,357.261719 
	C182.657791,350.592316 183.172226,350.523224 187.584579,355.713379 
	C190.208954,354.318420 192.700150,352.614319 195.448685,351.625488 
	C199.238281,350.262115 201.075577,351.841919 201.067917,355.889496 
	C201.052551,364.009369 196.121323,372.703064 187.819229,378.339203 
	C186.313324,375.293579 184.858582,372.351410 183.153473,368.902893 
	C181.629028,370.756592 180.188965,372.507690 178.520584,374.525208 
M193.812271,365.948334 
	C196.433807,356.669556 196.433914,356.668335 188.036423,355.963654 
	C187.954163,355.956757 187.849579,356.215668 187.443130,356.797638 
	C188.762314,360.703003 190.182144,364.906342 191.977646,370.221802 
	C192.886475,368.144806 193.203812,367.419586 193.812271,365.948334 
z"/>
<path fill="#B15555" opacity="1.000000" stroke="none" 
	d="
M87.477798,356.637878 
	C89.421791,354.826965 91.187401,353.339569 93.277313,351.578979 
	C99.832245,357.851593 92.844482,367.165222 98.829948,373.465881 
	C97.116600,374.870850 95.342033,376.325989 92.815758,378.397552 
	C89.093575,373.536346 85.449257,368.776825 81.804939,364.017303 
	C81.353783,364.139862 80.902634,364.262390 80.451485,364.384949 
	C80.847107,367.341583 81.242729,370.298248 81.638351,373.254883 
	C82.131073,373.306641 82.623802,373.358398 83.116524,373.410156 
	C81.374535,374.875031 79.632538,376.339935 77.692406,377.971436 
	C70.907608,372.193054 78.613960,362.505798 71.681747,356.755524 
	C72.822090,355.738068 73.986992,354.028595 75.556541,353.482880 
	C77.193268,352.913757 79.920120,352.714325 80.945480,353.668915 
	C84.068687,356.576691 86.601448,360.118683 89.538719,363.622131 
	C91.354057,360.405609 89.902885,358.499115 87.477798,356.637878 
z"/>
<path fill="#B25757" opacity="1.000000" stroke="none" 
	d="
M254.922577,377.981323 
	C248.527405,377.315857 246.188751,373.002075 244.986053,367.914703 
	C243.734665,362.621429 246.955261,357.393829 252.614105,353.357849 
	C259.238342,348.633392 261.906189,355.148346 266.208649,357.688568 
	C262.882446,361.161530 259.925049,362.857178 256.094452,358.020905 
	C253.799118,355.122925 251.288330,356.688324 250.864822,359.752960 
	C250.522507,362.230072 251.302368,364.951233 252.051102,367.422760 
	C252.222031,367.987061 255.121765,368.531067 255.396957,368.134552 
	C258.718414,363.348938 263.472534,365.678864 268.099152,365.157074 
	C266.836273,368.016144 263.091705,370.700378 268.601990,373.193451 
	C265.528198,374.615356 264.633179,379.458160 260.154724,376.138428 
	C259.403870,375.581787 256.969666,377.296082 254.922577,377.981323 
z"/>
<path fill="#B35A59" opacity="1.000000" stroke="none" 
	d="
M233.985855,322.162537 
	C229.209213,321.146698 224.371185,319.075745 219.669586,319.349365 
	C211.562027,319.821198 206.859879,316.363281 203.519348,309.537811 
	C198.775391,299.844788 193.557953,298.298676 183.882812,303.578033 
	C179.081619,306.197906 174.642883,309.584290 169.658539,311.742523 
	C162.092667,315.018616 154.860855,312.278046 152.384064,305.912384 
	C152.103989,305.192535 152.138168,304.350433 151.960632,303.100403 
	C158.364853,311.396057 164.093658,312.100159 173.133698,306.253876 
	C177.713669,303.291992 182.142929,299.848419 187.126740,297.814545 
	C195.866455,294.247925 202.194489,296.672638 205.911758,305.346558 
	C209.326721,313.315125 214.161499,316.857758 223.080566,316.413483 
	C227.121124,316.212189 231.324585,319.280701 235.745728,321.255890 
	C235.353470,321.818146 234.669662,321.990326 233.985855,322.162537 
z"/>
<path fill="#B35A59" opacity="1.000000" stroke="none" 
	d="
M409.467834,368.661713 
	C407.732971,369.079651 406.406433,369.446564 405.079895,369.813416 
	C405.692291,370.955902 406.304688,372.098389 407.192505,373.754669 
	C405.724487,374.927826 403.855682,376.421295 401.861359,378.015045 
	C395.401794,372.067841 402.661987,362.824097 395.988129,356.617554 
	C397.645844,355.177246 399.566101,353.508881 402.908539,350.604858 
	C403.967407,355.668274 404.784698,359.576355 405.681091,363.862854 
	C407.367065,363.862854 409.413208,363.862854 412.782135,363.862854 
	C411.494354,361.017029 410.533447,358.893494 409.263306,356.086670 
	C410.363251,355.172791 412.361847,353.512268 414.684967,351.582123 
	C421.188110,357.747192 414.465271,366.981445 420.194641,373.557159 
	C418.550079,374.883514 416.685730,376.387146 413.780823,378.729980 
	C413.011261,375.487427 412.560364,373.050385 411.808472,370.710022 
	C411.544403,369.888153 410.541626,369.303589 409.467834,368.661713 
z"/>
<path fill="#B15555" opacity="1.000000" stroke="none" 
	d="
M298.250031,373.034241 
	C296.446808,374.683380 294.643555,376.332520 291.943420,378.801849 
	C291.044098,375.831299 290.087860,373.791809 289.865845,371.675262 
	C289.538727,368.557373 289.965668,365.359009 289.621094,362.244751 
	C289.416077,360.391571 288.348328,358.633789 287.355286,356.003754 
	C288.427368,355.112488 290.423492,353.453033 292.684479,351.573395 
	C293.886444,353.071899 294.881104,354.311920 296.080627,355.807343 
	C296.706543,355.437775 297.472961,355.148254 298.026031,354.630768 
	C300.534302,352.283722 303.036255,350.604034 306.021820,353.946838 
	C308.985138,357.264740 308.117157,360.788116 305.413574,363.253723 
	C301.334778,366.973389 304.231720,369.329712 306.400940,371.867950 
	C307.153809,372.748901 308.616943,373.022858 309.755737,373.573975 
	C305.413666,379.367828 304.459900,379.342133 299.333069,372.884277 
	C298.837524,372.186798 298.663452,371.906616 298.379669,371.298981 
	C295.478760,367.463867 299.451813,365.842590 300.300354,363.326172 
	C300.777435,361.911407 300.698029,360.160675 300.334320,358.693939 
	C300.212616,358.203094 297.891235,357.582489 297.516266,357.958801 
	C296.478638,359.000214 295.513733,360.470947 295.296204,361.890900 
	C294.949524,364.153412 294.941071,366.566650 295.362518,368.808472 
	C295.592133,370.029694 297.001892,371.029083 297.937897,372.368896 
	C297.996399,372.609314 298.250031,373.034241 298.250031,373.034241 
z"/>
<path fill="#B25757" opacity="1.000000" stroke="none" 
	d="
M343.098846,366.902649 
	C341.271606,365.706299 339.374512,364.969604 338.364838,363.585541 
	C337.469482,362.358154 336.825623,360.119812 337.337585,358.830994 
	C340.128052,351.806305 347.446655,349.672180 354.731842,353.992096 
	C352.843140,356.081116 351.048248,358.066406 349.500793,359.777985 
	C347.415253,358.480927 345.692047,357.409241 343.968872,356.337555 
	C343.578918,356.849701 343.188965,357.361877 342.798981,357.874023 
	C344.675079,359.401062 346.701813,360.779572 348.389832,362.491913 
	C350.595581,364.729492 354.640106,368.834900 354.242401,369.357330 
	C351.777374,372.595551 348.655670,375.822784 345.034851,377.552673 
	C341.521820,379.231018 337.553406,378.049255 335.017029,373.734650 
	C336.706940,371.977783 338.365631,370.253357 339.508301,369.065430 
	C342.458557,370.795197 344.816650,372.177795 347.174744,373.560364 
	C347.631958,373.004486 348.089172,372.448608 348.546356,371.892761 
	C346.835907,370.288727 345.125458,368.684692 343.098846,366.902649 
z"/>
<path fill="#B25757" opacity="1.000000" stroke="none" 
	d="
M381.631775,352.389954 
	C385.346222,352.214905 388.755066,352.252991 392.163910,352.291107 
	C392.321960,352.913452 392.480011,353.535797 392.638062,354.158173 
	C390.811340,356.131500 388.984650,358.104828 387.486816,359.722900 
	C385.315125,358.429047 383.579193,357.394806 381.843262,356.360535 
	C381.448761,356.926239 381.054230,357.491974 380.659729,358.057678 
	C383.178986,359.941071 385.679047,361.850830 388.221436,363.702484 
	C394.025421,367.929596 394.029297,370.859009 388.199768,375.186432 
	C382.565369,379.368958 377.346008,379.014801 373.028564,373.742554 
	C374.755951,372.188049 376.533112,370.588745 378.014587,369.255524 
	C380.398560,370.711945 382.751648,372.149475 385.104706,373.586975 
	C385.554047,373.114044 386.003387,372.641083 386.452728,372.168152 
	C385.352661,370.842987 384.276550,369.496704 383.137207,368.206268 
	C382.818787,367.845673 382.333984,367.610229 381.891388,367.384308 
	C373.060547,362.876556 371.568420,360.276093 381.631775,352.389954 
z"/>
<path fill="#B15555" opacity="1.000000" stroke="none" 
	d="
M66.234840,356.969055 
	C69.118851,364.258606 68.278564,367.532318 62.609554,372.126617 
	C62.091721,372.546265 61.571594,372.963135 61.054829,373.384094 
	C54.703491,378.557312 54.161869,378.621948 50.606941,374.627533 
	C45.643597,369.050568 45.200680,362.202026 49.580605,358.090179 
	C50.671177,357.066376 51.886192,356.174286 53.052685,355.232391 
	C59.032356,350.404236 61.083481,350.626831 66.234840,356.969055 
M58.924358,371.187195 
	C62.786465,369.752075 61.161938,366.499634 60.879826,364.112030 
	C60.447609,360.453979 58.414280,357.704346 54.346611,357.214996 
	C51.614204,362.460510 52.836174,366.752106 58.924358,371.187195 
z"/>
<path fill="#B15555" opacity="1.000000" stroke="none" 
	d="
M211.675568,354.740234 
	C216.276657,351.001007 219.032135,351.051178 222.577759,354.715790 
	C226.647827,358.922455 227.215805,365.611450 223.409637,369.589142 
	C220.796616,372.319977 217.735474,374.693451 214.586578,376.795044 
	C213.684174,377.397308 211.426300,376.973175 210.388229,376.208008 
	C202.455673,370.360748 202.928879,361.766479 211.675568,354.740234 
M212.277603,366.945587 
	C214.016556,368.567596 215.755524,370.189575 217.933014,372.220581 
	C220.442017,363.398499 218.436401,358.946808 210.849854,357.038879 
	C211.255875,360.417419 211.603653,363.311462 212.277603,366.945587 
z"/>
<path fill="#B15555" opacity="1.000000" stroke="none" 
	d="
M438.809906,372.765320 
	C438.404633,373.098907 438.275787,373.202881 438.147827,373.307953 
	C431.717407,378.588043 431.045593,378.656952 427.411835,374.408997 
	C422.551910,368.727509 422.257324,362.094391 426.712708,357.977661 
	C427.683563,357.080627 428.746582,356.282471 429.776794,355.450714 
	C435.306244,350.986298 437.811340,350.830322 441.570923,354.708771 
	C445.796722,359.068176 446.066925,365.762817 442.119263,369.980103 
	C441.222107,370.938538 440.103455,371.689667 438.809906,372.765320 
M438.146606,368.309753 
	C438.069427,360.702209 436.573944,358.433289 431.048492,357.540802 
	C429.077454,362.125885 430.103333,367.274994 433.675598,370.006134 
	C435.315826,371.260193 437.205353,372.574921 438.146606,368.309753 
z"/>
<path fill="#B25757" opacity="1.000000" stroke="none" 
	d="
M117.274551,366.755249 
	C115.078552,366.976685 113.282150,367.065765 111.254227,367.166351 
	C111.254227,368.687592 111.254227,369.965118 111.254227,371.666443 
	C114.582779,371.666443 117.976753,371.666443 121.514084,371.666443 
	C118.073936,379.442902 111.301376,377.795898 105.124565,377.418274 
	C103.928566,370.633545 107.565575,363.193970 102.529724,356.348297 
	C107.639549,349.943329 115.317162,352.421539 122.402405,352.118988 
	C119.593445,357.050842 117.872345,357.853088 111.386719,357.089447 
	C111.386719,358.799774 111.386719,360.464752 111.386719,362.390442 
	C113.024002,362.472260 114.489426,362.538116 115.953888,362.620941 
	C117.239670,362.693634 118.524376,362.785370 120.991592,362.945374 
	C119.451675,364.652435 118.562920,365.637634 117.274551,366.755249 
z"/>
<path fill="#B25757" opacity="1.000000" stroke="none" 
	d="
M461.573669,353.465271 
	C466.047455,351.238190 468.876495,352.905792 469.114960,357.484100 
	C469.392059,362.803406 465.223846,367.260742 457.116425,369.775879 
	C458.055145,370.988495 458.829773,371.989105 459.972992,373.465881 
	C458.222260,374.877747 456.368103,376.372986 454.366852,377.986877 
	C447.920715,372.039459 454.826050,362.634613 448.508179,356.468018 
	C450.169464,355.098236 452.176636,353.443268 454.615112,351.432648 
	C455.786133,353.183655 456.743042,354.614532 457.864868,356.291992 
	C458.948242,355.476807 460.115479,354.598511 461.573669,353.465271 
M457.197205,361.386475 
	C459.224762,362.167999 461.252289,362.949524 463.279846,363.731049 
	C462.932281,361.988861 463.165253,359.671417 462.121979,358.618622 
	C459.580933,356.054321 458.218597,358.327484 457.197205,361.386475 
z"/>
<path fill="#B25958" opacity="1.000000" stroke="none" 
	d="
M254.204803,197.199341 
	C244.824799,206.920731 233.464874,213.607773 220.893295,218.141785 
	C212.520950,221.161316 206.658157,216.691208 205.959015,207.690781 
	C205.374069,200.160492 204.534927,192.649948 203.854660,184.617096 
	C203.900955,184.103531 204.167603,183.827637 204.167603,183.827637 
	C205.782425,188.211838 207.773224,192.502533 208.893906,197.009613 
	C209.800995,200.657761 209.467331,204.595306 210.030426,208.352570 
	C210.887207,214.069611 214.280594,216.466629 219.522751,213.990158 
	C230.245880,208.924362 240.613220,203.105316 251.124893,197.592346 
	C251.710129,197.285431 252.275726,196.941116 253.335358,196.699585 
	C253.948441,196.923096 254.076614,197.061218 254.204803,197.199341 
z"/>
<path fill="#B25757" opacity="1.000000" stroke="none" 
	d="
M157.161407,352.080353 
	C159.561249,352.103088 161.522903,352.103088 163.484573,352.103088 
	C163.674911,352.449371 163.865250,352.795654 164.055603,353.141937 
	C161.326385,354.811493 158.597168,356.481049 155.046555,358.653107 
	C155.318649,362.756836 153.695404,368.195587 156.636780,374.193909 
	C155.734695,374.911407 153.861862,376.400970 151.643768,378.165131 
	C146.621063,371.404968 150.377731,363.871155 148.513428,356.808258 
	C146.591385,356.808258 144.565186,356.808258 142.071930,356.808258 
	C145.996979,351.041595 151.187744,351.006897 157.161407,352.080353 
z"/>
<path fill="#B65F5E" opacity="1.000000" stroke="none" 
	d="
M259.967285,184.182739 
	C254.487183,192.456497 246.377960,194.227448 237.578568,193.495392 
	C229.217072,192.799774 221.359390,190.181198 214.347412,185.352386 
	C211.386841,183.313599 208.336044,181.405838 205.743561,178.517532 
	C208.287994,179.508469 210.926956,180.309937 213.359955,181.524170 
	C222.365417,186.018448 231.655685,189.240509 241.888947,189.350647 
	C247.926956,189.415619 253.408325,188.247467 258.089264,184.210556 
	C258.509705,183.847946 259.327850,183.946487 259.967285,184.182739 
z"/>
<path fill="#B25757" opacity="1.000000" stroke="none" 
	d="
M316.118042,372.496155 
	C316.121368,368.560455 316.329620,365.045380 316.024475,361.575409 
	C315.890656,360.053925 314.709320,358.624573 313.594818,356.301208 
	C314.917725,355.180664 316.973785,353.439148 319.474976,351.320557 
	C324.326385,357.828796 320.533630,365.009674 322.546600,371.755249 
	C325.114349,371.755249 327.840729,371.755249 330.744568,371.755249 
	C327.846008,379.441315 321.596832,377.485840 315.739716,377.261780 
	C315.848145,376.009552 315.981293,374.472321 316.118042,372.496155 
z"/>
<path fill="#B25757" opacity="1.000000" stroke="none" 
	d="
M275.162415,370.596100 
	C275.159454,367.481537 275.394012,364.788361 275.076569,362.161865 
	C274.860046,360.370361 273.872253,358.672119 272.875946,355.975922 
	C273.967194,355.083069 275.971985,353.442810 278.227112,351.597748 
	C284.585327,357.925079 277.526123,367.159576 283.573853,373.606323 
	C282.090332,374.824005 280.328613,376.270020 277.570648,378.533752 
	C276.647980,375.662109 275.906372,373.354004 275.162415,370.596100 
z"/>
<path fill="#B15555" opacity="1.000000" stroke="none" 
	d="
M205.692139,412.202271 
	C207.845886,413.785522 209.620087,415.532440 211.614822,417.496521 
	C211.860306,415.667450 212.101151,413.872925 212.341995,412.078369 
	C212.737183,412.052094 213.132370,412.025787 213.527557,411.999481 
	C213.527557,415.859375 213.527557,419.719238 213.527557,424.712036 
	C211.521439,422.425140 209.868179,420.540497 208.185104,418.621857 
	C207.694366,420.497101 207.224335,422.293243 206.754288,424.089417 
	C206.273712,424.007812 205.793137,423.926208 205.312561,423.844574 
	C205.312561,420.018372 205.312561,416.192200 205.692139,412.202271 
z"/>
<path fill="#B65F5E" opacity="1.000000" stroke="none" 
	d="
M180.449493,416.557190 
	C181.911102,418.099365 183.372711,419.641510 184.834320,421.183685 
	C183.468658,422.150360 182.091660,423.904877 180.740158,423.885498 
	C179.026733,423.860870 177.334000,422.395142 175.632355,421.550873 
	C175.904831,421.038879 176.177292,420.526917 176.449768,420.014954 
	C178.132095,420.653595 179.814407,421.292267 181.496719,421.930908 
	C181.730286,421.445801 181.963837,420.960693 182.197403,420.475555 
	C180.771225,419.683838 179.060822,419.156982 178.002945,418.022003 
	C177.044815,416.994019 175.954437,414.596375 176.412201,414.049286 
	C177.395615,412.874054 179.358887,411.924530 180.882812,411.977692 
	C182.177170,412.022919 183.417908,413.604340 184.682373,414.506104 
	C183.881134,414.859833 183.079910,415.213562 181.886505,415.076416 
	C180.680435,414.673279 179.866516,414.761078 179.052612,414.848877 
	C179.518234,415.418304 179.983871,415.987762 180.449493,416.557190 
z"/>
<path fill="#F4DCD4" opacity="1.000000" stroke="none" 
	d="
M247.013168,154.622055 
	C246.696152,155.756531 246.115936,156.570999 246.073746,157.412445 
	C245.599075,166.878876 242.745651,169.399323 231.483398,168.382034 
	C240.360092,165.507553 243.874527,159.998734 244.853210,152.271973 
	C245.763885,152.795319 246.381851,153.554962 247.013168,154.622055 
z"/>
<path fill="#B65F5E" opacity="1.000000" stroke="none" 
	d="
M223.613693,422.109558 
	C223.264755,419.777161 222.544128,417.573914 223.181885,415.882965 
	C223.801498,414.240143 225.680542,412.264404 227.253479,412.019226 
	C228.787430,411.780121 230.633865,413.546051 232.343124,414.431732 
	C232.042297,414.972412 231.741470,415.513092 231.440643,416.053772 
	C229.994217,415.364899 228.547806,414.675995 226.351730,413.630066 
	C226.351730,416.575378 226.351730,418.961517 226.351730,421.913208 
	C228.338547,421.121063 229.848114,420.519196 231.618225,419.813416 
	C230.424881,424.706665 228.546509,425.239868 223.613693,422.109558 
z"/>
<path fill="#B35A59" opacity="1.000000" stroke="none" 
	d="
M319.930817,423.599243 
	C319.130646,422.675415 318.638916,421.944336 317.546326,420.319946 
	C319.860229,420.961243 321.152771,421.319458 322.445343,421.677673 
	C322.646698,421.219177 322.848053,420.760651 323.049408,420.302124 
	C321.662079,419.668091 320.274750,419.034027 318.318787,418.140106 
	C318.318787,416.825928 318.318787,414.760376 318.318787,412.363281 
	C320.598602,412.363281 322.995880,412.363281 325.393188,412.363281 
	C325.442169,412.681030 325.491150,412.998749 325.540131,413.316498 
	C324.013977,413.743500 322.487823,414.170532 321.807159,414.360962 
	C323.175964,416.690826 324.526215,418.989136 325.876465,421.287476 
	C323.997375,422.122284 322.118317,422.957123 319.930817,423.599243 
z"/>
<path fill="#B35A59" opacity="1.000000" stroke="none" 
	d="
M292.725708,413.984253 
	C292.921783,416.508209 293.421692,418.810028 292.826294,420.781036 
	C292.420868,422.123322 290.427948,423.927460 289.244049,423.857086 
	C287.734650,423.767334 285.183624,422.078308 285.099792,420.931152 
	C284.897034,418.157013 285.865387,415.297241 286.361664,412.471985 
	C288.428741,412.855072 290.495850,413.238129 292.725708,413.984253 
M287.390839,415.179138 
	C287.538269,417.455231 287.685699,419.731323 287.833130,422.007385 
	C291.936096,417.986816 291.460602,415.121155 287.390839,415.179138 
z"/>
<path fill="#B35A59" opacity="1.000000" stroke="none" 
	d="
M302.619263,415.828735 
	C302.577576,414.609589 302.774902,412.487030 303.287445,412.407990 
	C304.943665,412.152527 306.872314,412.311340 308.372101,413.007904 
	C309.044739,413.320282 309.455139,415.478790 309.086487,416.463257 
	C308.472748,418.102203 307.135773,419.470306 305.842743,421.326599 
	C307.248749,421.776886 308.484772,422.172760 309.720825,422.568604 
	C309.708954,422.943146 309.697113,423.317657 309.685242,423.692169 
	C307.095795,423.825317 304.506317,423.958466 300.556152,424.161560 
	C303.095398,420.572632 304.960571,417.936462 306.825714,415.300293 
	C306.539490,414.983093 306.253235,414.665894 305.967010,414.348694 
	C304.978882,414.852783 303.990723,415.356842 302.619263,415.828735 
z"/>
<path fill="#B65F5E" opacity="1.000000" stroke="none" 
	d="
M273.429962,411.955078 
	C279.357513,415.979980 273.351624,418.337830 272.459747,421.441864 
	C273.738525,421.826904 274.993073,422.204620 276.247620,422.582336 
	C276.221802,422.890289 276.195984,423.198212 276.170166,423.506134 
	C273.582428,423.506134 270.994720,423.506134 267.571564,423.506134 
	C269.641144,420.517944 271.550964,417.760468 273.460785,415.002960 
	C273.184113,414.726257 272.907410,414.449554 272.630707,414.172852 
	C271.360321,414.780548 270.089935,415.388245 268.706116,416.050232 
	C268.598785,412.272095 268.598785,412.272095 273.429962,411.955078 
z"/>
<path fill="#C47B78" opacity="1.000000" stroke="none" 
	d="
M271.525452,90.372314 
	C272.870789,94.237801 274.087738,97.737457 275.304718,101.237106 
	C274.767822,101.441818 274.230957,101.646523 273.694061,101.851234 
	C272.524811,99.430862 271.355530,97.010498 269.998016,94.200432 
	C266.900269,95.329964 263.310822,96.638786 259.721344,97.947609 
	C259.566315,97.584328 259.411285,97.221054 259.256226,96.857773 
	C262.885651,95.156357 266.515076,93.454948 270.144501,91.753532 
	C270.046051,91.387657 269.947571,91.021782 269.849121,90.655899 
	C268.817688,90.510399 267.786255,90.364891 266.754852,90.219383 
	C266.829071,89.768547 266.903320,89.317711 266.977570,88.866867 
	C268.450745,89.246742 269.923950,89.626610 271.525452,90.372314 
z"/>
<path fill="#AF5252" opacity="1.000000" stroke="none" 
	d="
M244.289124,419.108643 
	C244.251770,420.107758 244.364960,421.510193 244.993851,421.802277 
	C246.142548,422.335815 247.596451,422.212219 248.875381,423.509583 
	C246.424179,423.509583 243.972961,423.509583 241.189453,423.509583 
	C241.189453,419.917786 241.189453,416.191772 241.189453,412.335938 
	C243.853378,412.335938 246.332565,412.335938 248.811737,412.335938 
	C248.871902,412.698334 248.932083,413.060760 248.992249,413.423157 
	C247.106415,413.773132 245.220581,414.123108 241.663940,414.783142 
	C244.271591,416.250183 245.582474,416.987701 247.429840,418.027008 
	C246.257446,418.445435 245.464813,418.728333 244.289124,419.108643 
z"/>
<path fill="#C47B78" opacity="1.000000" stroke="none" 
	d="
M240.688843,80.981163 
	C241.982666,79.746017 243.276489,78.510864 244.377365,77.459908 
	C248.589203,79.011925 252.523880,80.461807 256.458557,81.911690 
	C256.352295,82.107079 256.246002,82.302467 256.139740,82.497856 
	C253.014175,82.025391 249.873947,81.086090 246.766327,81.183800 
	C241.355453,81.353920 244.508026,85.979294 242.994629,88.811600 
	C242.346436,89.113663 242.168030,89.070320 241.989624,89.026970 
	C241.882645,88.286575 241.775665,87.546188 241.666931,86.352509 
	C241.339737,84.259872 241.014297,82.620514 240.688843,80.981163 
z"/>
<path fill="#B65F5E" opacity="1.000000" stroke="none" 
	d="
M136.383133,369.017914 
	C133.062378,369.069519 130.165115,369.069519 127.029686,369.069519 
	C129.182358,364.766022 130.518875,364.439392 140.606110,365.754181 
	C138.951111,367.153320 137.878860,368.059814 136.383133,369.017914 
z"/>
<path fill="#C47B78" opacity="1.000000" stroke="none" 
	d="
M259.859375,78.233475 
	C255.823090,77.879616 251.636765,77.170319 247.450455,76.461021 
	C251.801300,74.178703 255.848557,75.104141 259.859375,78.233475 
z"/>
<path fill="#F9E6DE" opacity="1.000000" stroke="none" 
	d="
M240.362213,81.073074 
	C241.014297,82.620514 241.339737,84.259872 241.428207,86.201385 
	C241.058411,86.057709 240.925568,85.611862 240.498032,84.176888 
	C240.160843,86.342888 239.968140,87.580818 239.764496,88.888977 
	C239.494720,88.762032 239.100342,88.643135 239.108688,88.570732 
	C239.394043,86.099426 239.717575,83.632530 240.362213,81.073074 
z"/>
<path fill="#F9E6DE" opacity="1.000000" stroke="none" 
	d="
M233.987381,322.354156 
	C234.669662,321.990326 235.353470,321.818146 236.106186,321.293793 
	C237.768570,320.941650 239.362076,320.941650 241.603058,320.941650 
	C240.571426,322.040680 239.964218,322.687531 239.200790,323.593567 
	C237.588287,323.640839 236.132019,323.428894 234.335327,323.072937 
	C233.994904,322.928925 233.988907,322.545776 233.987381,322.354156 
z"/>
<path fill="#FDEEE5" opacity="1.000000" stroke="none" 
	d="
M256.066711,194.798676 
	C256.991211,193.635345 257.915710,192.472015 258.840210,191.308685 
	C259.208466,191.696732 259.576721,192.084778 259.944977,192.472824 
	C258.907166,193.278488 257.869385,194.084152 256.435791,194.922882 
	C256.040039,194.955933 256.066711,194.798676 256.066711,194.798676 
z"/>
<path fill="#F9E6DE" opacity="1.000000" stroke="none" 
	d="
M242.035858,89.350159 
	C242.168030,89.070320 242.346436,89.113663 242.800430,89.161255 
	C243.745773,89.859291 244.478760,90.504562 245.061920,91.264771 
	C245.419296,91.730629 245.546982,92.372688 245.159943,93.431206 
	C244.133987,92.178589 243.108047,90.925972 242.035858,89.350159 
z"/>
<path fill="#F9E6DE" opacity="1.000000" stroke="none" 
	d="
M213.040863,323.260468 
	C213.349274,324.055145 213.380722,324.742218 213.412155,325.429260 
	C213.005325,325.315582 212.598511,325.201935 212.191681,325.088257 
	C212.382416,324.443115 212.573151,323.797974 213.040863,323.260468 
z"/>
<path fill="#FDEEE5" opacity="1.000000" stroke="none" 
	d="
M266.765198,151.022354 
	C267.108032,151.584885 267.167603,152.183044 266.937134,152.855804 
	C266.245422,152.572220 265.843781,152.214050 265.442169,151.855865 
	C265.788757,151.589905 266.135315,151.323944 266.765198,151.022354 
z"/>
<path fill="#FDEEE5" opacity="1.000000" stroke="none" 
	d="
M195.207397,181.127350 
	C194.585266,181.200043 194.148804,181.064896 193.712311,180.929718 
	C194.096664,180.454132 194.481003,179.978546 194.865356,179.502960 
	C195.041245,179.975143 195.217148,180.447327 195.207397,181.127350 
z"/>
<path fill="#F9E6DE" opacity="1.000000" stroke="none" 
	d="
M208.000854,323.249817 
	C208.639511,323.244141 209.093292,323.355286 209.506332,323.551941 
	C209.554398,323.574860 209.376968,324.071320 209.304092,324.348236 
	C208.804001,324.029541 208.303925,323.710876 208.000854,323.249817 
z"/>
<path fill="#C47B78" opacity="1.000000" stroke="none" 
	d="
M268.597107,101.272980 
	C268.882294,101.104965 269.017181,101.011810 269.152069,100.918663 
	C269.197510,101.087624 269.242950,101.256584 269.288391,101.425552 
	C269.131958,101.465958 268.973022,101.544838 268.819855,101.534866 
	C268.692017,101.526550 268.570892,101.414154 268.597107,101.272980 
z"/>
<path fill="#FDEEE5" opacity="1.000000" stroke="none" 
	d="
M261.709930,180.087448 
	C261.907410,180.576706 261.986023,180.887482 261.945618,181.181931 
	C261.907562,181.459381 261.744171,181.719635 261.228180,181.947067 
	C261.331818,181.265320 261.435455,180.583572 261.709930,180.087448 
z"/>
<path fill="#FDEEE5" opacity="1.000000" stroke="none" 
	d="
M202.790680,182.940781 
	C202.342682,182.644577 201.894669,182.348389 201.446686,182.052185 
	C201.610535,181.848907 201.774384,181.645615 201.938232,181.442322 
	C202.246521,181.701096 202.554825,181.959885 202.919907,182.565994 
	C202.976685,182.913330 202.790680,182.940781 202.790680,182.940781 
z"/>
<path fill="#FDEEE5" opacity="1.000000" stroke="none" 
	d="
M193.849945,186.203064 
	C193.439255,186.388382 193.048050,186.236221 192.342499,186.081238 
	C192.309235,185.549347 192.590317,185.020264 192.871384,184.491165 
	C193.204071,184.949295 193.536743,185.407440 193.849945,186.203064 
z"/>
<path fill="#F9E6DE" opacity="1.000000" stroke="none" 
	d="
M240.501389,92.526390 
	C240.094925,92.596878 239.844498,92.515068 239.594055,92.433258 
	C239.872391,92.161430 240.150711,91.889603 240.429031,91.617767 
	C240.505157,91.869873 240.581284,92.121979 240.501389,92.526390 
z"/>
<path fill="#F9E6DE" opacity="1.000000" stroke="none" 
	d="
M204.800751,321.410522 
	C205.162155,321.594940 205.359726,321.910980 205.557297,322.227020 
	C205.250504,321.998718 204.943710,321.770416 204.800751,321.410522 
z"/>
<path fill="#AF5252" opacity="1.000000" stroke="none" 
	d="
M196.909393,176.859222 
	C196.569901,177.221451 196.122864,177.421173 195.675812,177.620880 
	C195.828339,177.287125 195.980881,176.953384 196.351807,176.501495 
	C196.570190,176.383347 196.801865,176.696732 196.909393,176.859222 
z"/>
<path fill="#F9E6DE" opacity="1.000000" stroke="none" 
	d="
M202.744965,318.592468 
	C202.863724,318.443481 203.065964,318.422913 203.268204,318.402374 
	C203.121628,318.508545 202.975052,318.614716 202.744965,318.592468 
z"/>
<path fill="#C47B78" opacity="1.000000" stroke="none" 
	d="
M262.078735,79.910583 
	C262.300873,80.407333 262.523041,80.904091 262.745178,81.400841 
	C262.430511,81.231369 262.115814,81.061905 261.839050,80.509537 
	C261.876984,80.126648 262.078735,79.910583 262.078735,79.910583 
z"/>
<path fill="#B25958" opacity="1.000000" stroke="none" 
	d="
M202.948700,182.823578 
	C203.266418,182.910065 203.612152,183.086304 204.062744,183.545090 
	C204.167603,183.827637 203.900955,184.103531 203.765884,184.243149 
	C203.392639,184.090256 203.154480,183.797729 202.853485,183.222992 
	C202.790680,182.940781 202.976685,182.913330 202.948700,182.823578 
z"/>
<path fill="#F4DCD4" opacity="1.000000" stroke="none" 
	d="
M298.456665,373.030273 
	C298.250031,373.034241 297.996399,372.609314 298.087372,372.239746 
	C298.178345,371.870148 298.489349,371.626465 298.489349,371.626465 
	C298.663452,371.906616 298.837524,372.186798 299.041748,372.715454 
	C299.071869,372.963928 298.663269,373.026306 298.456665,373.030273 
z"/>
<path fill="#B25958" opacity="1.000000" stroke="none" 
	d="
M254.655914,195.607330 
	C254.937225,195.362610 255.218536,195.117905 255.783295,194.835938 
	C256.066711,194.798676 256.040039,194.955933 256.119781,194.949066 
	C256.033844,195.279297 255.868179,195.616394 255.303894,195.921127 
	C254.905289,195.888763 254.655914,195.607330 254.655914,195.607330 
z"/>
<path fill="#B25958" opacity="1.000000" stroke="none" 
	d="
M255.033142,196.026611 
	C254.997604,196.446487 254.834213,196.728500 254.437805,197.104935 
	C254.076614,197.061218 253.948441,196.923096 253.652039,196.554291 
	C253.692383,196.089142 253.937607,195.902908 254.437683,195.686127 
	C254.655914,195.607330 254.905289,195.888763 255.033142,196.026611 
z"/>
<path fill="#C47B78" opacity="1.000000" stroke="none" 
	d="
M261.776428,80.234955 
	C261.475067,80.039993 261.274292,79.736710 261.073517,79.433434 
	C261.327667,79.427719 261.581818,79.422005 261.957336,79.663437 
	C262.078735,79.910583 261.876984,80.126648 261.776428,80.234955 
z"/>
<path fill="#FEF0E7" opacity="1.000000" stroke="none" 
	d="
M145.170013,269.998840 
	C142.276978,265.283508 138.855087,262.690521 133.361679,264.759674 
	C130.597916,265.800720 129.822495,264.164154 129.748535,261.739410 
	C129.562180,255.630524 135.314606,249.310089 142.012894,249.850632 
	C150.856262,250.564301 157.631836,247.440430 164.408905,242.190063 
	C167.803635,239.560089 172.967651,237.645889 177.186066,237.892731 
	C214.263382,240.062256 240.784973,221.148834 263.943787,195.313217 
	C266.541992,192.414688 268.333893,188.793396 271.073303,184.637024 
	C271.840576,193.056778 271.376190,200.542648 269.066162,207.764954 
	C259.292542,238.321838 243.271683,264.374176 214.559341,280.705536 
	C200.942322,288.450836 186.146545,291.742432 170.371811,290.371948 
	C157.463547,289.250519 147.352707,284.928345 145.170013,269.998840 
z"/>
<path fill="#FFF1E8" opacity="1.000000" stroke="none" 
	d="
M301.657104,236.558411 
	C301.472687,236.963165 301.106354,237.098480 300.727997,237.159637 
	C300.642670,237.173431 300.515564,236.928726 300.407715,236.802994 
	C300.762085,236.622711 301.116486,236.442444 301.657104,236.558411 
z"/>
<path fill="#FDEEE5" opacity="1.000000" stroke="none" 
	d="
M268.720032,142.282715 
	C269.030640,141.820801 269.267914,141.702515 269.505157,141.584229 
	C269.610413,141.857605 269.715668,142.130981 269.820923,142.404358 
	C269.429504,142.478348 269.038116,142.552353 268.720032,142.282715 
z"/>
<path fill="#FDEEE5" opacity="1.000000" stroke="none" 
	d="
M268.151733,144.676239 
	C268.149872,144.399811 268.347321,144.329590 268.544739,144.259354 
	C268.480164,144.467041 268.415558,144.674744 268.151733,144.676239 
z"/>
<path fill="#FFF1E8" opacity="1.000000" stroke="none" 
	d="
M193.666718,366.321350 
	C193.203812,367.419586 192.886475,368.144806 191.977646,370.221802 
	C190.182144,364.906342 188.762314,360.703003 187.443130,356.797638 
	C187.849579,356.215668 187.954163,355.956757 188.036423,355.963654 
	C196.433914,356.668335 196.433807,356.669556 193.666718,366.321350 
z"/>
<path fill="#F4DCD4" opacity="1.000000" stroke="none" 
	d="
M298.028870,371.999329 
	C297.001892,371.029083 295.592133,370.029694 295.362518,368.808472 
	C294.941071,366.566650 294.949524,364.153412 295.296204,361.890900 
	C295.513733,360.470947 296.478638,359.000214 297.516266,357.958801 
	C297.891235,357.582489 300.212616,358.203094 300.334320,358.693939 
	C300.698029,360.160675 300.777435,361.911407 300.300354,363.326172 
	C299.451813,365.842590 295.478760,367.463867 298.379669,371.298981 
	C298.489349,371.626465 298.178345,371.870148 298.028870,371.999329 
z"/>
<path fill="#FCEAE2" opacity="1.000000" stroke="none" 
	d="
M58.522354,371.081482 
	C52.836174,366.752106 51.614204,362.460510 54.346611,357.214996 
	C58.414280,357.704346 60.447609,360.453979 60.879826,364.112030 
	C61.161938,366.499634 62.786465,369.752075 58.522354,371.081482 
z"/>
<path fill="#FCEAE2" opacity="1.000000" stroke="none" 
	d="
M212.114532,366.575531 
	C211.603653,363.311462 211.255875,360.417419 210.849854,357.038879 
	C218.436401,358.946808 220.442017,363.398499 217.933014,372.220581 
	C215.755524,370.189575 214.016556,368.567596 212.114532,366.575531 
z"/>
<path fill="#FCEAE2" opacity="1.000000" stroke="none" 
	d="
M438.101685,368.736450 
	C437.205353,372.574921 435.315826,371.260193 433.675598,370.006134 
	C430.103333,367.274994 429.077454,362.125885 431.048492,357.540802 
	C436.573944,358.433289 438.069427,360.702209 438.101685,368.736450 
z"/>
<path fill="#F9E6DE" opacity="1.000000" stroke="none" 
	d="
M457.195923,360.995605 
	C458.218597,358.327484 459.580933,356.054321 462.121979,358.618622 
	C463.165253,359.671417 462.932281,361.988861 463.279846,363.731049 
	C461.252289,362.949524 459.224762,362.167999 457.195923,360.995605 
z"/>
<path fill="#FFF1E8" opacity="1.000000" stroke="none" 
	d="
M180.777039,416.230347 
	C179.983871,415.987762 179.518234,415.418304 179.052612,414.848877 
	C179.866516,414.761078 180.680435,414.673279 181.599670,414.892395 
	C181.504852,415.434021 181.304718,415.668762 180.777039,416.230347 
z"/>
<path fill="#F4DCD4" opacity="1.000000" stroke="none" 
	d="
M287.621948,414.840637 
	C291.460602,415.121155 291.936096,417.986816 287.833130,422.007385 
	C287.685699,419.731323 287.538269,417.455231 287.621948,414.840637 
z"/>
</svg>